<svg height="512" viewBox="0 0 128 128" width="512" xmlns="http://www.w3.org/2000/svg"><g><g><path d="m78.544 15.333h-6l.412-5.833a3.272 3.272 0 0 1 3.213-3 2.758 2.758 0 0 1 2.787 3z" fill="#eaeaf0"/><path d="m41 108.75h46v12.75h-46z" fill="#c9c9ce"/><path d="m41 11.697h46v12.495h-46z" fill="#c9c9ce"/><rect fill="#eaeaf0" height="97.803" rx="6" width="57.5" x="35.25" y="17.697"/><path d="m35.25 37.924h57.5v57.35h-57.5z" fill="#df6421"/><path d="m69.396 48.199-3.5 11.455h8.125l-13.911 25.344 4.036-18.399h-10.167l5.062-18.4z" fill="#f3d232"/></g><g fill="#190d28"><path d="m35.25 84.406a1.75 1.75 0 0 0 1.75-1.75v-4.437a1.75 1.75 0 0 0 -3.5 0v4.437a1.75 1.75 0 0 0 1.75 1.75z"/><path d="m88.75 16.218v-4.518a1.75 1.75 0 0 0 -1.75-1.75h-6.318l.023-.323c0-.042.006-.066.006-.108s.009-.177.009-.219a4.5 4.5 0 0 0 -4.55-4.55 5.037 5.037 0 0 0 -4.955 4.623l-.042.577h-30.173a1.751 1.751 0 0 0 -1.75 1.75v4.518a7.758 7.758 0 0 0 -5.75 7.482v48.425a1.75 1.75 0 0 0 3.5 0v-32.451h48.667a1.75 1.75 0 0 0 0-3.5h-48.667v-12.474a4.255 4.255 0 0 1 4.25-4.25h45.5a4.255 4.255 0 0 1 4.25 4.25v69.823h-54v-5.023a1.75 1.75 0 0 0 -3.5 0v21a7.757 7.757 0 0 0 5.75 7.479v4.521a1.751 1.751 0 0 0 1.75 1.75h46a1.75 1.75 0 0 0 1.75-1.75v-4.521a7.757 7.757 0 0 0 5.75-7.479v-85.8a7.758 7.758 0 0 0 -5.75-7.482zm-14.044-6.6a1.506 1.506 0 0 1 1.464-1.368 1 1 0 0 1 1.05 1.016c0 .049-.007.1-.008.15l-.039.534h-2.491zm10.544 3.832v2.5h-42.5v-2.5zm-42.5 106.3v-2.5h42.5v2.5zm44-6h-45.5a4.255 4.255 0 0 1 -4.25-4.25v-12.477h54v12.477a4.255 4.255 0 0 1 -4.25 4.25z"/><path d="m88.5 58.661v-9a1.75 1.75 0 0 0 -3.5 0v9a1.75 1.75 0 0 0 3.5 0z"/><path d="m70.8 47.158a1.75 1.75 0 0 0 -1.406-.709h-10.353a1.748 1.748 0 0 0 -1.687 1.285l-5.062 18.4a1.75 1.75 0 0 0 1.687 2.215h7.992l-3.571 16.275a1.75 1.75 0 0 0 3.244 1.216l13.911-25.34a1.751 1.751 0 0 0 -1.534-2.6h-5.761l2.809-9.194a1.75 1.75 0 0 0 -.269-1.548zm.263 14.242-6.64 12.1 1.432-6.529a1.749 1.749 0 0 0 -1.709-2.125h-7.871l4.1-14.9h6.656l-2.809 9.194a1.75 1.75 0 0 0 1.678 2.26z"/></g></g></svg>