<svg height="61" viewBox="0 0 60 61" width="60" xmlns="http://www.w3.org/2000/svg"><g id="Page-1" fill="none" fill-rule="evenodd"><g id="038---Frozen-Chicken" fill-rule="nonzero" transform="translate(0 -1)"><path id="Shape" d="m59 46c0 7.7319865-6.2680135 14-14 14s-14-6.2680135-14-14c-.0029436-1.1740547.1449331-2.3436248.44-3.48v-.12c1.6346327-6.1432056 7.2030507-10.4139687 13.56-10.4 1.8084082-.0145821 3.602167.3251449 5.28 1 .4587952.1869515.9062301.4006518 1.34.64 4.5520349 2.4428079 7.3888714 7.1939325 7.38 12.36z" fill="#00bcd4"/><path id="Shape" d="m45 32c-.5010337.0011903-1.0016819.0278915-1.5.08 7.1126167.7636474 12.5054767 6.7665061 12.5054767 13.92s-5.39286 13.1563526-12.5054767 13.92c.4983181.0521085.9989663.0788097 1.5.08 7.7319865 0 14-6.2680135 14-14s-6.2680135-14-14-14z" fill="#00838f"/><path id="Shape" d="m52.5 32.84c-.28.28-.57.56-.87.83-.4363066-.2499233-.887104-.4736523-1.35-.67-1.677833-.6748551-3.4715918-1.0145821-5.28-1-6.3457972-.0003501-11.8982236 4.2675903-13.53 10.4v.12h-.81c-2.7512435-.0870135-5.4313839.8827036-7.49 2.71-1.2627307 1.1159029-2.2167154 2.53827-2.77 4.13.2864948-1.4526759.2864948-2.9473241 0-4.4-.2123348-1.0634291-.7220788-2.044773-1.47-2.83-.8139094-.7612377-1.8321372-1.268614-2.93-1.46-1.4526759-.2864948-2.9473241-.2864948-4.4 0 1.59173-.5532846 3.0140971-1.5072693 4.13-2.77 1.8272964-2.0586161 2.7970135-4.7387565 2.71-7.49-.06-7.21 3.86-16 9.69-21.87 8.7-8.69 19.05-8.15 25.77-1.43s7.29 17.03-1.4 25.73z" fill="#a0522d"/><path id="Shape" d="m12 40.49-.33.14s.27-.06.6-.1z" fill="#783e22"/><path id="Shape" d="m42 32c-6.3457972-.0003501-11.8982236 4.2675903-13.53 10.4v.12h-.81c-2.6568228-.0798013-5.2494642.8247741-7.28 2.54.2749798 1.4201449.2749798 2.8798551 0 4.3.5532846-1.59173 1.5072693-3.0140971 2.77-4.13 2.0586161-1.8272964 4.7387565-2.7970135 7.49-2.71h.81v-.12c1.4886879-5.5840042 6.2554625-9.679458 12-10.31-.4811798-.0580857-.9653306-.0881364-1.45-.09z" fill="#783e22"/><path id="Shape" d="m53.93 7.07c-3.4185341-3.57547446-8.2705448-5.41335732-13.2-5 3.8793264.42521835 7.4877075 2.19403261 10.2 5 6.71 6.71 7.25 17-1.38 25.71.25.09.49.16.73.26.4587952.1869515.9062301.4006518 1.34.64.3-.27.59-.55.87-.83 8.7-8.71 8.16-19.06 1.44-25.78z" fill="#783e22"/><path id="Shape" d="m20.32 45-8.66 8.66c.1400334.0980108.2736406.2048966.4.32 1.0142837 1.0117293 1.318788 2.5350461.7713869 3.8589493-.5474011 1.3239033-1.8387782 2.1873627-3.2713869 2.1873627-1.43260872 0-2.72398578-.8634594-3.27138691-2.1873627-.54740113-1.3239032-.24289684-2.84722.77138691-3.8589493-1.01172932 1.0142837-2.53504613 1.318788-3.85894935.7713869s-2.18736268-1.8387782-2.18736268-3.2713869.86345946-2.7239858 2.18736268-3.2713869 2.84722003-.2428968 3.85894935.7713869c.11510338.1263594.22198916.2599666.32.4l8.62-8.7c1.0634291.2123348 2.044773.7220788 2.83 1.47.7621891.7870567 1.2827544 1.7761309 1.5 2.85z" fill="#ffe0b2"/><path id="Shape" d="m20.33 45c-.2123348-1.0634291-.7220788-2.044773-1.47-2.83-.7897982-.7638694-1.7825678-1.2845528-2.86-1.5l-.88.88c.2543783.1705771.4920981.3647707.71.58.7655558.792538 1.2863576 1.7890055 1.5 2.87l-8.67 8.63c.1400334.0980108.27364063.2048966.4.32 1.3727778 1.3839888 1.3727778 3.6160112 0 5-.28948087.2878392-.62815722.5215259-1 .69 1.55271484.7125288 3.392787.214479 4.3741343-1.1839409.9813472-1.3984198.8239597-3.2981957-.3741343-4.5160591-.1263594-.1151034-.2599666-.2219892-.4-.32l8.66-8.62z" fill="#dfc49c"/><path id="Shape" d="m53.85 47-2.75 1.37-4.1-2.37 4.1-2.37 2.75 1.37c.1363063.0698814.2868443.1075159.44.11.4688133.006715.8793454-.3131913.9874022-.7694311.1080568-.4562397-.1153789-.9262963-.5374022-1.1305689l-1.56-.77 1-.56c.3108211-.1786328.5027321-.5095174.5034421-.8680127s-.1898889-.6901375-.5-.87-.692621-.1806201-1.0034421-.0019873l-1 .57.11-1.71c.0192293-.2653698-.0680874-.5274621-.2426275-.728277-.1745401-.200815-.4219117-.3237942-.6873725-.341723-.265334-.0163994-.5262777.0735261-.7251761.2499078-.1988985.1763816-.3193798.4247009-.3348239.6900922l-.2 3.06-4.1 2.34v-4.73l2.55-1.71c.4021248-.3239123.4915129-.9007244.206288-1.3311547s-.8512619-.5729246-1.306288-.3288453l-1.45 1v-1.17c0-.5522847-.4477153-1-1-1s-1 .4477153-1 1v1.13l-1.45-1c-.2955284-.2380487-.7003343-.2883109-1.0451054-.1297641-.3447712.1585468-.570095.4985809-.5817287.8778815-.0116337.3793005.1924276.7325045.5268341.9118826l2.55 1.75v4.73l-4.1-2.37-.2-3.06c-.0154441-.2653913-.1359254-.5137106-.3348239-.6900922-.1988984-.1763817-.4598421-.2663072-.7251761-.2499078-.2711421.0176-.5234493.1447757-.6988754.352269-.1754262.2074933-.2588665.4774382-.2311246.747731l.11 1.73-1-.57c-.4804877-.2761424-1.0938576-.1104877-1.37.37-.2761423.4804877-.1104877 1.0938576.37 1.37l1 .56-1.56.77c-.4220233.2042726-.645459.6743292-.5374022 1.1305689.1080568.4562398.5185889.7761461.9874022.7694311.1531557-.0024841.3036937-.0401186.44-.11l2.75-1.36 4.1 2.34-4.1 2.37-2.75-1.37c-.4943143-.2454836-1.0940469-.0440809-1.34.45-.2454836.4943143-.0440809 1.0940469.45 1.34l1.56.77-1 .56c-.4804877.2761424-.6461423.8895123-.37 1.37.2761424.4804877.8895123.6461424 1.37.37l1-.57-.11 1.71c-.0192293.2653698.0680874.5274621.2426275.728277.1745401.200815.4219117.3237942.6873725.341723h.07c.5296773.0009542.9682202-.4112761 1-.94l.2-3.06 4.09-2.34v4.73l-2.55 1.71c-.3640258.2445986-.5261957.6978475-.3999631 1.1178578.1262326.4200102.5114066.7087569.9499631.7121422.1966006.0022477.3889572-.057208.55-.17l1.45-1v1.17c0 .5522847.4477153 1 1 1s1-.4477153 1-1v-1.13l1.45 1c.165658.0987248.357672.14411.55.13.4385565-.0033853.8237305-.292132.9499631-.7121422.1262326-.4200103-.0359373-.8732592-.3999631-1.1178578l-2.55-1.71v-4.73l4.1 2.37.2 3.06c.0317798.5287239.4703227.9409542 1 .94h.07c.2693518-.0201777.519086-.1484582.6923742-.3556507.1732883-.2071924.2553912-.4756736.2276258-.7443493l-.11-1.73 1 .57c.4804877.2761424 1.0938576.1104877 1.37-.37s.1104877-1.0938576-.37-1.37l-1-.56 1.56-.77c.4940809-.2459531.6954836-.8456857.45-1.34-.2531594-.486561-.8509938-.6784034-1.34-.43z" fill="#f5f5f5"/><g fill="#000"><path id="Shape" d="m53.26 33.49c8.5-8.55 9.06-19.45 1.38-27.13-7.68-7.68-18.64-7.12-27.19 1.43-6 6-10 15.11-10 22.59.0826357 2.4965187-.7940866 4.9298703-2.45 6.8-.9816479 1.1125107-2.2261255 1.9616433-3.62 2.47-.4691379.1006417-.8006736.5203072-.79 1 0 .5522847.4477153 1 1 1h.24c.6585813-.1286545 1.3291526-.185653 2-.17l-6.44 6.43c-1.80755987-1.454662-4.42108881-1.3123411-6.06.33-1.77262727 1.7729197-1.77262727 4.6470803 0 6.42.95794687.9783661 2.3070193 1.470943 3.67 1.34-.00995318.1665181-.00995318.3334819 0 .5.00328057 1.9928584 1.30579702 3.7505933 3.21141727 4.3337802 1.90562023.5831869 3.96877383-.1445343 5.08680483-1.7942319s1.0295225-3.8356407-.2182221-5.3895483l6.47-6.46c.0065008.6701071-.0470465 1.3394493-.16 2-.0097686.0830471-.0097686.1669529 0 .25-.0003967.4098038.249279.7783727.63.93.1177876.0465537.2433466.0703081.37.07.2721876-.0010388.5321912-.1129847.72-.31.1295061-.1327903.2195273-.2989833.26-.48.4982308-1.4025827 1.3406524-2.657619 2.45-3.65 1.7651688-1.5641061 4.0415585-2.4284228 6.4-2.43-.1378638.8028573-.2114307 1.6154371-.22 2.43-.0051977 7.1685433 5.0625321 13.3388484 12.0953957 14.7269657 7.0328637 1.3881173 14.0649561-2.3939755 16.7838353-9.0269037 2.7188791-6.6329282.3645334-14.2625812-5.619231-18.210062zm-42.26 19.43c-.2026728.2031661-.3082954.4836121-.29.77.0160261.2865937.1544337.552482.38.73l.09.07c.07.06.15.11.21.17.9862271.9973658.9862271 2.6026342 0 3.6-1.0119921.9499674-2.58800793.9499674-3.6 0-.98622715-.9973658-.98622715-2.6026342 0-3.6.38772359-.3900375.38772359-1.0199625 0-1.41-.39003745-.3877236-1.01996255-.3877236-1.41 0-.99511846.9916811-2.60488154.9916811-3.6 0-.98622715-.9973658-.98622715-2.6026342 0-3.6.99511846-.9916811 2.60488154-.9916811 3.6 0 .06205455.0654612.11889451.1356753.17.21l.07.09c.16985302.2294182.43475155.3692258.72.38.28217824-.000667.55094084-.1205206.74-.33l8.24-8.24c.6875688.1929854 1.3164093.5537956 1.83 1.05.4914168.5149607.8545647 1.1384787 1.06 1.82zm19.64-11.39c-3.0110399-.0893655-5.940702.9850827-8.18 3-.3548231.3111276-.6888724.6451769-1 1-.1734565-1.5400399-.8358424-2.983971-1.89-4.12-1.134167-1.055307-2.5796282-1.7148864-4.12-1.88.3498853-.3163599.6836401-.6501147 1-1 2.0122263-2.2409179 3.0862653-5.1694642 3-8.18-.06-7 3.72-15.47 9.4-21.15 7.73-7.7 17.52-8.27 24.37-1.42s6.28 16.64-1.43 24.35c-.11.12-.23.23-.35.34-3.9233178-1.867178-8.4635094-1.9414094-12.4457701-.2034864s-7.0152748 5.117224-8.3142299 9.2634864zm14.36 17.47c-7.1797017 0-13-5.8202983-13-13s5.8202983-13 13-13 13 5.8202983 13 13c0 3.4478144-1.3696389 6.7544152-3.8076118 9.1923882-2.437973 2.4379729-5.7445738 3.8076118-9.1923882 3.8076118z"/><path id="Shape" d="m44.62 7.79c.2572312-.2554449.3586445-.62871694.2660383-.97920817s-.3651626-.62495368-.715-.72000001c-.3498374-.09504632-.7238071.00376328-.9810383.25920818-.1955519.18848323-.3060259.44840018-.3060259.72s.110474.53151677.3060259.72c.1881405.19241273.4458913.30087555.715.30087555s.5268595-.10846282.715-.30087555z"/><path id="Shape" d="m40.33 7.79c.384074-.3927955.379366-1.02186933-.0105441-1.40887226-.3899102-.38700292-1.0190016-.38700292-1.4089118 0-.3899101.38700293-.3946181 1.01607676-.0105441 1.40887226.1881405.19241273.4458913.30087555.715.30087555s.5268595-.10846282.715-.30087555z"/><path id="Shape" d="m36 9.22c.3799503-.3941995.3722638-1.02064721-.0172444-1.40540541s-1.016003-.3847582-1.4055112 0-.3971947 1.01120591-.0172444 1.40540541c.1884832.19555187.4484002.30602594.72.30602594s.5315168-.11047407.72-.30602594z"/><path id="Shape" d="m35.32 11.37c-.1924127.1881405-.3008755.4458913-.3008755.715s.1084628.5268595.3008755.715c.1881405.1924127.4458913.3008755.715.3008755s.5268595-.1084628.715-.3008755c.3948836-.3948836.3948836-1.0351164 0-1.43s-1.0351164-.3948836-1.43 0z"/><path id="Shape" d="m40.33 14.94c.1924127-.1881405.3008755-.4458913.3008755-.715s-.1084628-.5268595-.3008755-.715c-.1881405-.1924127-.4458913-.3008755-.715-.3008755s-.5268595.1084628-.715.3008755c-.2554449.2554449-.3552075.627764-.2617082.9767082s.3660558.6215007.715.715.7212633-.0062633.9767082-.2617082z"/><path id="Shape" d="m39.61 9.93c-.3799503.3941995-.3722638 1.0206472.0172444 1.4054054s1.016003.3847582 1.4055112 0 .3971947-1.0112059.0172444-1.4054054c-.1884832-.19555187-.4484002-.30602594-.72-.30602594s-.5315168.11047407-.72.30602594z"/><path id="Shape" d="m43.91 9.93c-.384074.3927955-.379366 1.0218693.0105441 1.4088723.3899102.3870029 1.0190016.3870029 1.4089118 0 .3899101-.387003.3946181-1.0160768.0105441-1.4088723-.1881405-.19241273-.4458913-.30087555-.715-.30087555s-.5268595.10846282-.715.30087555z"/><path id="Shape" d="m48.92 9.22c.1924127-.18814048.3008755-.44589129.3008755-.715s-.1084628-.52685952-.3008755-.715c-.2554449-.25544492-.627764-.35520752-.9767082-.2617082s-.6215007.36605579-.715.71500002.0062633.72126329.2617082.97670818c.1881405.19241273.4458913.30087555.715.30087555s.5268595-.10846282.715-.30087555z"/><path id="Shape" d="m44.62 14.94c.1924127-.1881405.3008755-.4458913.3008755-.715s-.1084628-.5268595-.3008755-.715c-.3948836-.3948836-1.0351164-.3948836-1.43 0s-.3948836 1.0351164 0 1.43c.1881405.1924127.4458913.3008755.715.3008755s.5268595-.1084628.715-.3008755z"/><path id="Shape" d="m31 9.93c-.3799503.3941995-.3722638 1.0206472.0172444 1.4054054s1.016003.3847582 1.4055112 0 .3971947-1.0112059.0172444-1.4054054c-.1884832-.19555187-.4484002-.30602594-.72-.30602594s-.5315168.11047407-.72.30602594z"/></g></g></g></svg>