<svg height="512" viewBox="0 0 58 58" width="512" xmlns="http://www.w3.org/2000/svg"><g id="Page-1" fill="none" fill-rule="evenodd"><g id="037---Frozen-Fish" fill-rule="nonzero" transform="translate(0 -1)"><path id="Shape" d="m55.45 21.77c-1.3231715 3.8137177-3.4242335 7.3109475-6.17 10.27-1.6750451-.6886468-3.4689211-1.041986-5.28-1.04-6.3448502.0024351-11.8957756 4.2692218-13.53 10.4-1.29.22-2.65.4-4.07.53-2.4467369.220489-4.9040965.3006203-7.36.24-1.354976-.0564168-2.4390144-1.1448088-2.49-2.5-.0527868-2.2819281.0139713-4.5650549.2-6.84.281744-3.8902216 1.0614426-7.7282203 2.32-11.42 2.0672014-6.326079 6.2800161-11.73093276 11.91-15.28 1.8775483-1.1684466 3.8758023-2.13069306 5.96-2.87v.01c.8172522 4.61095731 3.0261848 8.8613205 6.33 12.18 3.3220109 3.2973934 7.5713222 5.5022906 12.18 6.32z" fill="#3b97d3"/><path id="Shape" d="m55.45 21.77c-4.6086778-.8177094-8.8579891-3.0226066-12.18-6.32-3.3038152-3.3186795-5.5127478-7.56904269-6.33-12.18v-.01c5.8790856-1.97158936 12.1102396-2.67037851 18.28-2.05 1.2030139.1300802 2.1546562 1.07756694 2.29 2.28.6212266 6.17049464-.0810696 12.4025209-2.06 18.28z" fill="#81ccb8"/><circle id="Oval" cx="46.098" cy="6.397" fill="#35495e" r="1.2"/><path id="Shape" d="m30.98 6.13c-5.6299839 3.54906724-9.8427986 8.953921-11.91 15.28l-.51-.13-7.46-7.46c-.2381308-.2364408-.3652606-.5624995-.3500229-.8977283.0152376-.3352289.1714237-.6484095.4300229-.8622717 9.19-7.59 16.31-7.03 19.73-6.04z" fill="#81ccb8"/><g fill="#2980ba"><path id="Shape" d="m24.04 50.52-8.49 8.48s-5.93-5.94-3.39-11.88c-5.94 2.55-11.88-3.39-11.88-3.39l8.49-8.49c2.25-2.25 5.46-2.59 7.97-2.41h.01c-.1860287 2.2749451-.2527868 4.5580719-.2 6.84.0509856 1.3551912 1.135024 2.4435832 2.49 2.5 2.4559035.0606203 4.9132631-.019511 7.36-.24.28 2.57.08 6.14-2.36 8.59z"/><path id="Shape" d="m36.766 21.82c-.2653486.0007185-.5199469-.1047939-.707-.293-5.732-5.731-1.739-9.857-1.7-9.9.3907136-.3809821 1.0147219-.3783717 1.4022343.005866s.3954183 1.0082013.0177657 1.402134c-.274.288-2.506 2.879 1.692 7.076.2859079.2859943.3714219.7160366.216678 1.0896546-.1547439.3736179-.5192821.6172591-.923678.6173454z"/><path id="Shape" d="m32.523 26.063c-.2651948-.0000566-.5195073-.1054506-.707-.293-5.464-5.465-3.712-10.973-3.634-11.2.1120028-.3394023.3965666-.5932702.746499-.6659741.3499324-.072704.7120703.0468016.95.3135.2379296.2666984.3155038.6400718.203501.9794741-.059.186-1.406 4.607 3.15 9.163.2866239.2859.3725934.7164072.2177586 1.0904636-.1548349.3740564-.5199229.6178554-.9247586.6175364z"/></g><path id="Shape" d="m58 45c0 7.7319865-6.2680135 14-14 14s-14-6.2680135-14-14c-.0028603-1.2154812.1551788-2.4259939.47-3.6 1.6342244-6.1307782 7.1851498-10.3975649 13.53-10.4 7.7276471.0104662 13.9895338 6.2723529 14 14z" fill="#81ccb8"/><path id="Shape" d="m52.851 46.005-2.751 1.361-4.1-2.366 4.1-2.366 2.751 1.366c.4944616.2405173 1.090346.0367057 1.3339366-.4562491.2435906-.4929549.0434923-1.0900964-.4479366-1.3367509l-1.556-.77.979-.566c.3119508-.1773616.5049532-.5082732.5057421-.8671183s-.1907567-.6906021-.5019247-.8693336c-.3111679-.1787314-.694247-.1770325-1.0038174.0044519l-.98.565.112-1.733c.0169874-.2646893-.0718754-.5252847-.247037-.7244514-.1751617-.1991667-.422272-.3205877-.686963-.3375486-.2656577-.0211481-.5285476.0662509-.7286637.2422475s-.3203784.4255696-.3333363.6917525l-.196 3.057-4.1 2.368v-4.733l2.555-1.7c.297245-.1982824.4661283-.5400812.4430332-.8966441s-.2346599-.6737196-.555-.832c-.3203401-.1582805-.7007882-.1336383-.9980332.0646441l-1.445.961v-1.132c0-.5522847-.4477153-1-1-1s-1 .4477153-1 1v1.132l-1.445-.964c-.297245-.1982824-.6776931-.2229246-.9980331-.0646441-.3203401.1582805-.5319049.4754371-.555.832s.1457881.6983617.4430331.8966441l2.555 1.703v4.733l-4.1-2.368-.2-3.063c-.0137766-.2658813-.1342758-.5149496-.3341965-.6907744s-.4623404-.2635232-.7278035-.2432256c-.264691.0169609-.5118013.1383819-.686963.3375486-.1751616.1991667-.2640244.4597621-.247037.7244514l.116 1.735-.98-.565c-.3095704-.1814844-.6926495-.1831833-1.0038174-.0044519-.311168.1787315-.5027136.5104885-.5019247.8693336s.1937913.6897567.5057421.8671183l.979.566-1.556.77c-.4962278.2446621-.7001621.8452722-.4555 1.3415s.8452722.7001621 1.3415.4555l2.751-1.366 4.1 2.366-4.1 2.366-2.752-1.361c-.4944616-.2405173-1.090346-.0367057-1.3339366.4562491-.2435906.4929549-.0434923 1.0900964.4479366 1.3367509l1.556.77-.979.566c-.3119508.1773616-.5049532.5082732-.5057421.8671183s.1907567.6906021.5019247.8693336c.3111679.1787314.694247.1770325 1.0038174-.0044519l.98-.565-.112 1.733c-.0169874.2646893.0718754.5252847.247037.7244514.1751617.1991667.422272.3205877.686963.3375486h.065c.5282269.0010828.9661945-.4088549 1-.936l.2-3.063 4.094-2.365v4.733l-2.555 1.7c-.4595009.3065181-.583518.9274991-.2769999 1.387.306518.4595009.927499.583518 1.3869999.277l1.445-.961v1.132c0 .5522847.4477153 1 1 1s1-.4477153 1-1v-1.132l1.445.964c.4595009.306518 1.080482.1825009 1.387-.277s.1825009-1.080482-.277-1.387l-2.555-1.703v-4.733l4.1 2.368.2 3.063c.0338055.5271451.4717731.9370828 1 .936h.065c.264691-.0169609.5118013-.1383819.686963-.3375486.1751616-.1991667.2640244-.4597621.247037-.7244514l-.119-1.737.98.565c.3095704.1814844.6926495.1831833 1.0038174.0044519.311168-.1787315.5027136-.5104885.5019247-.8693336s-.1937913-.6897567-.5057421-.8671183l-.979-.566 1.556-.77c.4914289-.2466545.6915272-.843796.4479366-1.3367509-.2435906-.4929548-.839475-.6967664-1.3339366-.4562491z" fill="#fff"/></g></g></svg>