<svg height="512" viewBox="0 0 61 60" width="512" xmlns="http://www.w3.org/2000/svg"><g id="Page-1" fill="none" fill-rule="evenodd"><g id="040---Frozen-Meat" fill-rule="nonzero"><path id="Shape" d="m60 44c-.0000001 8.2842712-6.7157288 14.9999998-15 14.9999998s-14.9999999-6.7157286-15-14.9999998c0-.27.01-.53.02-.79.41452-7.7525509 6.67179-13.9100862 14.43-14.2.18-.01.37-.01.55-.01 1.8067592-.0012034 3.5988734.3240196 5.29.96 5.8282479 2.2222118 9.6875615 7.8025169 9.71 14.04z" fill="#00bcd4"/><path id="Shape" d="m45 29c-.506 0-1.007.027-1.5.076 7.6612948.774165 13.491947 7.2236903 13.491947 14.924s-5.8306522 14.149835-13.491947 14.924c.493.049.994.076 1.5.076 8.2842712-.0000001 14.9999998-6.7157288 14.9999998-15s-6.7157286-14.9999999-14.9999998-15z" fill="#00838f"/><path id="Shape" d="m49.07 15.46c-.4632331-.5729155-.9679244-1.11103-1.51-1.61l-.42-.34c-.34-.27-.65-.51-.96-.71-7.56-5.13-14.42-7.73-20.4-7.73-1.4092798-.00023844-2.8143389.15401626-4.19.46-8.21 1.86-14.57 11.45-15.48 23.32-.39869018 4.1878845.08853733 8.4127944 1.43 12.4.52800707 1.4612861 1.24043427 2.849175 2.12 4.13 1.0307487 1.5672446 2.4232173 2.8636808 4.06 3.78.9950875.5172328 2.098548.7913844 3.22.8 1.3914353.0091425 2.7437005-.460443 3.83-1.33 1.4260551-1.330089 2.6611115-2.8511939 3.67-4.52.68-1 1.38-2.03 2.16-3.03 1.8467127-2.3653033 4.0298788-4.4473969 6.48-6.18 2.7189196-3.5643371 6.890063-5.7251142 11.37-5.89.9330501-.4521231 1.8233367-.9876338 2.66-1.6 1.94-1.46 3.99-4.11 3.88-7.17-.1129324-1.7575294-.7857991-3.4326872-1.92-4.78z" fill="#f44335"/><path id="Shape" d="m49.07 15.46c-.4632331-.5729155-.9679244-1.11103-1.51-1.61l-.42-.34c-.34-.27-.65-.51-.96-.71-7.56-5.13-14.42-7.73-20.4-7.73-.494 0-.982.026-1.466.062 5.611.4 11.944 2.971 18.866 7.668.31.2.62.44.96.71l.42.34c.5420756.49897 1.0467669 1.0370845 1.51 1.61 1.1342009 1.3473128 1.8070676 3.0224706 1.92 4.78.11 3.06-1.94 5.71-3.88 7.17-.8366633.6123662-1.7269499 1.1478769-2.66 1.6-4.479937.1648858-8.6510804 2.3256629-11.37 5.89-2.4501212 1.7326031-4.6332873 3.8146967-6.48 6.18-.78 1-1.48 2.03-2.16 3.03-1.0088885 1.6688061-2.2439449 3.189911-3.67 4.52-.6992262.5522064-1.5125361.941953-2.381 1.141.5079069.1230136 1.0284149.1864411 1.551.189 1.3914353.0091425 2.7437005-.460443 3.83-1.33 1.4260551-1.330089 2.6611115-2.8511939 3.67-4.52.68-1 1.38-2.03 2.16-3.03 1.8467127-2.3653033 4.0298788-4.4473969 6.48-6.18 2.7189196-3.5643371 6.890063-5.7251142 11.37-5.89.9330501-.4521231 1.8233367-.9876338 2.66-1.6 1.94-1.46 3.99-4.11 3.88-7.17-.1129324-1.7575294-.7857991-3.4326872-1.92-4.78z" fill="#c81e1e"/><path id="Shape" d="m25.68 24.16c-4.7 1.91-9.38.45-10.46-3.25s1.87-8.24 6.57-10.15 9.38-.44 10.46 3.26-1.87 8.24-6.57 10.14z" fill="#ffe0b2"/><path id="Shape" d="m54.99 20.1c-.0094959 3.8250196-1.7345664 7.4439974-4.7 9.86-1.6911266-.6359804-3.4832408-.9612034-5.29-.96-.18 0-.37 0-.55.01.9330501-.4521231 1.8233367-.9876338 2.66-1.6 1.94-1.46 3.99-4.11 3.88-7.17-.1129324-1.7575294-.7857991-3.4326872-1.92-4.78-.4632331-.5729155-.9679244-1.11103-1.51-1.61l-.42-.34c-.34-.27-.65-.51-.96-.71-7.56-5.13-14.42-7.73-20.4-7.73-1.4092798-.00023844-2.8143389.15401626-4.19.46-8.21 1.86-14.57 11.45-15.48 23.32-.39869018 4.1878845.08853733 8.4127944 1.43 12.4.52800707 1.4612861 1.24043427 2.849175 2.12 4.13 1.0307487 1.5672446 2.4232173 2.8636808 4.06 3.78.9950875.5172328 2.098548.7913844 3.22.8 1.3914353.0091425 2.7437005-.460443 3.83-1.33 1.4260551-1.330089 2.6611115-2.8511939 3.67-4.52.68-1 1.38-2.03 2.16-3.03 1.8467127-2.3653033 4.0298788-4.4473969 6.48-6.18-1.838037 2.3961847-2.9051126 5.2940273-3.06 8.31-.09.11-.18.23-.27.34-2.15 2.75-3.86 6.1-6.48 8.2-3.2665202 2.5601719-7.7410411 2.9373045-11.39.96-2.21412072-1.2102425-4.10146362-2.9397349-5.5-5.04-1.07297256-1.5637255-1.94325209-3.2572424-2.59-5.04-1.54464345-4.5262139-2.11378236-9.3281104-1.67-14.09.97-12.67 7.82-24.47 18.59-26.91 9.44-2.14 19.36 2.19 27.71 7.85.13.09.25.17.37.26.09.06.17.12.26.19.21.15.41.31.61.47l.51.42c.7253567.6520434 1.3974925 1.3609627 2.01 2.12 1.6828901 2.0220153 2.6683851 4.5330987 2.81 7.16z" fill="#ffe0b2"/><g fill="#dfc49c"><path id="Shape" d="m52.18 12.94c-.6125075-.7590373-1.2846433-1.4679566-2.01-2.12l-.51-.42c-.2-.16-.4-.32-.61-.47-.09-.07-.17-.13-.26-.19-.12-.09-.24-.17-.37-.26-7.326-4.966-15.861-8.906-24.22-8.352 7.38.414 14.769 3.979 21.22 8.352.13.09.25.17.37.26.09.06.17.12.26.19.21.15.41.31.61.47l.51.42c.7253567.6520434 1.3974925 1.3609627 2.01 2.12 1.6828901 2.0220153 2.6683851 4.5330987 2.81 7.16.0088784 3.4941531-1.4444515 6.8326782-4.008 9.207.785507.1558082 1.5572993.3741706 2.308.653 2.9654336-2.4160026 4.6905041-6.0349804 4.7-9.86-.1416149-2.6269013-1.1271099-5.1379847-2.81-7.16z"/><path id="Shape" d="m27.562 39.933c-.3024637 1.0686681-.4842639 2.1678551-.542 3.277-.09.11-.18.23-.27.34-2.15 2.75-3.86 6.1-6.48 8.2-1.3931752 1.1206956-3.0621422 1.846033-4.832 2.1 2.7892164.4215895 5.6278588-.3395378 7.832-2.1 2.62-2.1 4.33-5.45 6.48-8.2.09-.11.18-.23.27-.34.1548874-3.0159727 1.221963-5.9138153 3.06-8.31-2.0356158 1.4489454-3.8884164 3.1388956-5.518 5.033z"/><path id="Shape" d="m32.03 51.52c-1.1866979 1.9463943-2.6560831 3.7056124-4.36 5.22-2.3612713 1.888016-5.4305646 2.6480315-8.4 2.08-1.7791936-.3599374-3.4215454-1.2122972-4.74-2.46-2.37-2.14-6.8-6.31-8.16-8.69h.01c1.39853638 2.1002651 3.28587928 3.8297575 5.5 5.04 3.6489589 1.9773045 8.1234798 1.6001719 11.39-.96 2.62-2.1 4.33-5.45 6.48-8.2.09-.11.18-.23.27-.34-.01.26-.02.52-.02.79-.00339 2.6424931.6973069 5.2381783 2.03 7.52z"/><path id="Shape" d="m59.99 24.39c.0098917 3.5519909-1.4485372 6.9501666-4.03 9.39-1.5665934-1.6976667-3.508212-3.0057765-5.67-3.82 2.9654336-2.4160026 4.6905041-6.0349804 4.7-9.86-.1416149-2.6269013-1.1271099-5.1379847-2.81-7.16-.6125075-.7590373-1.2846433-1.4679566-2.01-2.12l-.51-.42c-.2-.16-.4-.32-.61-.47 2.9117137 2.1208098 5.6170148 4.5113853 8.08 7.14 1.7118665 2.0712124 2.7142962 4.6368715 2.86 7.32z"/></g><path id="Shape" d="m25.68 24.16c-4.7 1.91-9.38.45-10.46-3.25s1.87-8.24 6.57-10.15 9.38-.44 10.46 3.26-1.87 8.24-6.57 10.14z" fill="#ffe0b2"/><path id="Shape" d="m24.384 19.7c3.153-1.277 4.2-3.722 4.08-4.148-.172-.594-2.451-1.5-5.378-.318-1.4426103.555942-2.6856755 1.5311683-3.569 2.8-.3048066.3862291-.4835425.8568075-.512 1.348.172.591 2.452 1.502 5.379.318z" fill="#f44335"/><path id="Shape" d="m54.515 45.141-2.983 1.475-4.532-2.616 4.532-2.616 2.983 1.475c.4944616.2405173 1.090346.0367057 1.3339366-.4562491.2435906-.4929549.0434923-1.0900964-.4479366-1.3367509l-1.787-.884 1.165-.673c.3119508-.1773616.5049532-.5082732.5057421-.8671183s-.1907567-.6906021-.5019247-.8693336c-.3111679-.1787314-.694247-.1770325-1.0038174.0044519l-1.165.673.128-1.991c.022865-.3572656-.1466058-.6995909-.4445744-.8980254s-.6791664-.2228311-1-.064c-.3208335.1588311-.5325606.4767598-.5554256.8340254l-.215 3.321-4.527 2.616v-5.233l2.769-1.846c.4595009-.306518.583518-.9274991.277-1.387s-.9274991-.583518-1.387-.277l-1.659 1.106v-1.345c0-.5522847-.4477153-1-1-1s-1 .4477153-1 1v1.345l-1.659-1.106c-.297245-.1982824-.6776931-.2229246-.9980331-.0646441-.3203401.1582805-.5319049.4754371-.555.832s.1457881.6983617.4430331.8966441l2.769 1.846v5.233l-4.531-2.616-.215-3.321c-.0353462-.5522847-.5117153-.9713462-1.064-.936s-.9713462.5117153-.936 1.064l.128 1.991-1.165-.673c-.3095704-.1814844-.6926495-.1831833-1.0038174-.0044519-.311168.1787315-.5027136.5104885-.5019247.8693336s.1937913.6897567.5057421.8671183l1.165.673-1.787.884c-.4914289.2466545-.6915272.843796-.4479366 1.3367509.2435906.4929548.839475.6967664 1.3339366.4562491l2.983-1.475 4.536 2.616-4.532 2.616-2.983-1.475c-.4944616-.2405173-1.090346-.0367057-1.3339366.4562491-.2435906.4929549-.0434923 1.0900964.4479366 1.3367509l1.787.884-1.165.673c-.3119508.1773616-.5049532.5082732-.5057421.8671183s.1907567.6906021.5019247.8693336c.3111679.1787314.694247.1770325 1.0038174-.0044519l1.165-.673-.128 1.991c-.0353867.5508238.3822059 1.0261542.933 1.062h.066c.5282269.0010828.9661945-.4088549 1-.936l.215-3.321 4.528-2.614v5.233l-2.769 1.846c-.4595009.306518-.583518.9274991-.277 1.387.3065181.4595009.9274991.583518 1.387.277l1.659-1.106v1.345c0 .5522847.4477153 1 1 1s1-.4477153 1-1v-1.345l1.659 1.106c.297245.1982824.6776931.2229246.9980332.0646441.3203401-.1582804.5319049-.4754371.555-.832s-.1457882-.6983617-.4430332-.8966441l-2.769-1.846v-5.233l4.531 2.616.215 3.321c.0338055.5271451.4717731.9370828 1 .936h.066c.5507941-.0358458.9683867-.5111762.933-1.062l-.128-1.991 1.165.673c.3095704.1814844.6926495.1831833 1.0038174.0044519.311168-.1787315.5027136-.5104885.5019247-.8693336s-.1937913-.6897567-.5057421-.8671183l-1.165-.673 1.787-.884c.4914289-.2466545.6915272-.843796.4479366-1.3367509-.2435906-.4929548-.839475-.6967664-1.3339366-.4562491z" fill="#f5f5f5"/><path id="Shape" d="m60.989 24.357c-.1548645-2.9229597-1.2511031-5.7174033-3.125-7.966-2.4955765-2.6723436-5.241456-5.0994331-8.2-7.248-.111-.088-.212-.162-.275-.2l-.037-.026-.011-.008c-.088-.064-.176-.126-.268-.19l-.093-.064c-10.605-7.189-20.194-9.881-28.492-8-10.488 2.377-18.274 13.553-19.365 27.81-.45467361 4.9041649.13459185 9.8490189 1.729 14.509.66198467 1.8245393 1.54917971 3.5592895 2.641 5.164 0 .009 0 .019.009.028 1.429 2.5 5.85 6.672 8.356 8.935 1.4573932 1.3712801 3.2699392 2.3066536 5.232 2.7.695896.1298067 1.4021057.1964113 2.11.199 2.5795477.0081345 5.0844961-.8650693 7.1-2.475 1.4323922-1.2205099 2.6833291-2.6391363 3.715-4.213 3.4090068 4.7418654 9.132528 7.2473756 14.9290396 6.5352882 5.7965115-.7120873 10.7434082-4.5284323 12.9033183-9.9544256 2.1599102-5.4259932 1.1890504-11.5980032-2.5323579-16.0988626 2.3898585-2.5579231 3.7052059-5.9365115 3.674-9.437zm-2 .068c.0146025 2.9318907-1.0815624 5.7605535-3.068 7.917-1.1513062-1.0796398-2.4557036-1.9833841-3.871-2.682 2.5416771-2.5429835 3.9594932-5.9976723 3.937-9.593-.0453734-1.1543034-.2568812-2.2960412-.628-3.39.618.622.988 1.019.99 1.019 1.5797293 1.9014946 2.5060036 4.2606541 2.642 6.729zm-55.872 4.191c.852-11.131 6.691-23.491 17.814-26.011 7.74-1.753 16.8.838 26.92 7.7l.091.063c.085.058.166.114.3.209.069.045.128.091.232.17.189.135.371.28.555.428l.475.39c.6844553.6170643 1.3184756 1.2878684 1.896 2.006 1.5507308 1.8499241 2.4586155 4.1535016 2.587 6.564-.0136428 3.3289675-1.453558 6.492412-3.955 8.689-.7736524-.2544321-1.5656277-.4493336-2.369-.583.014-.011.03-.021.045-.032 2.148-1.617 4.4-4.569 4.278-8-.1205541-1.9738513-.8701755-3.8571919-2.139-5.374-.5087297-.6284433-1.0643181-1.2174606-1.662-1.762l-.428-.347c-.367-.291-.7-.55-1.02-.754-7.727-5.243-14.779-7.9-20.961-7.9-1.4836336.00008689-2.9627919.16272389-4.411.485-8.625 1.953-15.309 11.912-16.252 24.217-.41105605 4.3323243.09562291 8.7026433 1.487 12.826.55693917 1.541105 1.30870543 3.0046463 2.237 4.355 1.12383706 1.7022598 2.6413404 3.1086259 4.424 4.1 1.1361457.5907883 2.3964554.903038 3.677.911 1.6182677.0090934 3.190593-.5377256 4.454-1.549 1.5080021-1.3894037 2.8122153-2.9848261 3.874-4.739.668-.984 1.359-2 2.122-2.978.7521576-.9585904 1.5644605-1.8684231 2.432-2.724-.4112117 1.2437239-.6671513 2.5334978-.762 3.84l-.1.124c-.72.92-1.393 1.908-2.043 2.863-1.1669334 1.9222846-2.6069757 3.6648201-4.275 5.173-2.9513266 2.3250733-7.0067481 2.6605314-10.3.852-2.0693289-1.1387324-3.83273778-2.7607941-5.14-4.728-1.02550414-1.4938016-1.856527-3.1121623-2.473-4.816-1.49447506-4.3914961-2.04315033-9.0494424-1.61-13.668zm29.3 5.531c-2.4958362 1.7766501-4.7218388 3.90464-6.609 6.318-.8 1.029-1.511 2.073-2.215 3.109-.9524868 1.5736861-2.1129557 3.0116585-3.45 4.275-1.7348681 1.2964721-4.066587 1.4617674-5.967.423-1.4924231-.8424077-2.761197-2.0302544-3.7-3.464-.82958356-1.2097905-1.50166062-2.5203407-2-3.9-1.29258089-3.8528912-1.76003959-7.9346371-1.372-11.98.876-11.438 6.923-20.658 14.7-22.42 1.3054549-.29019557 2.6386798-.43706491 3.976-.438 5.774 0 12.449 2.542 19.858 7.57.285.184.568.406.872.647l.37.3c.5075596.4670712.9801618.9707569 1.414 1.507.9983721 1.1784578 1.5940112 2.6451314 1.7 4.186.095 2.667-1.736 5.021-3.477 6.331-.7499401.5469136-1.545926 1.0277172-2.379 1.437-4.6033571.2458576-8.8757384 2.4695522-11.718 6.099zm-5.373 21.813c-2.1335049 1.7139001-4.9141556 2.3999159-7.6 1.875-1.5937671-.3286674-3.0638213-1.096601-4.244-2.217-.308-.279-.69-.627-1.111-1.017.9246053.2289601 1.873469.3454695 2.826.347 2.5360695.0148682 5.0008947-.8383813 6.985-2.418 1.8251797-1.6295952 3.4007118-3.5188186 4.676-5.607.191-.279.386-.56.58-.841.2427738 1.880198.8205757 3.7016625 1.706 5.378-1.0464424 1.6781387-2.3327248 3.1941866-3.818 4.5zm17.956 2.04c-5.6624714 0-10.7673795-3.4109905-12.9343135-8.6424319-2.166934-5.2314415-.9691534-11.2530911 3.0348186-15.257063 4.0039719-4.003972 10.0256215-5.2017526 15.257063-3.0348186 5.2314414 2.166934 8.6424319 7.2718421 8.6424319 12.9343135-.0082673 7.7285595-6.2714405 13.9917327-14 14z" fill="#000"/><path id="Shape" d="m29.778 9.769c-2.6748079-1.15020593-5.7095301-1.12517355-8.365.069-5.156 2.087-8.364 7.18-7.151 11.352.5219849 1.7529456 1.7704329 3.1979996 3.429 3.969 1.2134045.5702697 2.5403751.8578199 3.881.841 1.5397302-.0137661 3.0624223-.3237367 4.485-.913 5.156-2.088 8.364-7.18 7.151-11.352-.5231909-1.7518835-1.7718594-3.1956791-3.43-3.966zm-4.471 13.468c-2.1352883.9657624-4.5739107 1.0102456-6.743.123-1.152053-.5208533-2.0212007-1.51625-2.382-2.728-.935-3.216 1.749-7.227 5.981-8.941 1.1855479-.4887739 2.4537046-.7460712 3.736-.758 1.0369891-.0169367 2.0644566.2001099 3.006.635 1.1531464.5217152 2.0227507 1.5186766 2.383 2.732.935 3.212-1.749 7.222-5.981 8.937z" fill="#000"/><path id="Shape" d="m28.322 14.143c-1.8139173-.7143895-3.8410303-.6562243-5.611.161-1.6326482.6338386-3.037795 1.7425601-4.034 3.183-.4865288.6131414-.713415 1.3925244-.632 2.171.1906032.5146689.5902836.924523 1.1 1.128.7615472.3404352 1.5889991.5081112 2.423.491 1.0948046-.0103181 2.1773059-.2320475 3.188-.653 3.453-1.4 4.982-4.262 4.665-5.353-.1901609-.5146057-.5895205-.9245035-1.099-1.128zm-4.313 4.628c-1.2214881.5726485-2.6137209.6647501-3.9.258.0710784-.1580848.1546779-.3102359.25-.455.7713383-1.0969561 1.852971-1.9383034 3.106-2.416 1.2212823-.5731159 2.6134482-.665927 3.9-.26-.7292079 1.3362357-1.9233261 2.3584948-3.356 2.873z" fill="#000"/></g></g></svg>