<svg height="512" viewBox="0 0 60 60" width="512" xmlns="http://www.w3.org/2000/svg"><g id="Page-1" fill="none" fill-rule="evenodd"><g id="039---Frozen-Veg" fill-rule="nonzero" transform="translate(-1)"><path id="Shape" d="m60 45c0 7.7319865-6.2680135 14-14 14s-14-6.2680135-14-14c-.0021777-.551578.031225-1.1027222.1-1.65.8832023-7.350297 7.3362709-12.7424317 14.7265275-12.3053735s13.1627866 6.5522121 13.1734725 13.9553735z" fill="#00bcd4"/><path id="Shape" d="m46 31c-.501124.000841-1.0018425.0285475-1.5.083 7.1005043.7766351 12.477794 6.7741488 12.477794 13.917s-5.3772897 13.1403649-12.477794 13.917c5.1556805.5638557 10.2006402-1.7687254 13.1106632-6.0618293s3.2082338-9.8432051.7749798-14.423407-7.1992273-7.4399313-12.385643-7.4317637z" fill="#00838f"/><path id="Shape" d="m56.49 30.9c2.1432441 2.1536473 2.9876418 5.280201 2.22 8.22-2.3767158-5.1409431-7.6168048-8.343422-13.2758891-8.1135559s-10.6221764 3.8467876-12.5741109 9.1635559c-.317704-.3217401-.6117996-.6659656-.88-1.03-1.1898935-1.5439698-1.8492888-3.4309628-1.88-5.38-.0336472-1.7680567.6436311-3.4756628 1.88-4.74-1.2614041 1.2334875-2.9661323 1.9074498-4.73 1.87-1.9516929-.0236084-3.8430457-.679792-5.39-1.87-1.4732583-1.0954427-2.6152616-2.5765863-3.3-4.28v-.01c-.8735525-2.0141401-.8334437-4.3076356.11-6.29v-.01c.0908124-.1984756.197842-.389122.32-.57-.4380057-.2969096-.8465409-.6351232-1.22-1.01-3.3275492-3.4182788-3.2919572-8.87558853.0798942-12.25017461s8.8291305-3.41460225 12.2501058-.08982539c.2460813.24884289.476522.5126808.69.79.1384002-1.06965205.6189729-2.06587573 1.37-2.84 2.27-2.27 6.38-1.84 9.19.96 1.0813969 1.07989256 1.8458053 2.4357664 2.21 3.92 2.3-2.08 6.26-1.62 8.99 1.11s3.19 6.69 1.11 8.99c1.4842336.3641947 2.8401074 1.1286031 3.92 2.21 2.8 2.81 3.23 6.92.96 9.19-.7741243.7510271-1.7703479 1.2315998-2.84 1.37.2773192.213478.5411571.4439187.79.69z" fill="#a4c400"/><path id="Shape" d="m27.1 4.51c.2460813.24884289.476522.5126808.69.79.1047035-.71670895.3555574-1.40425971.737-2.02-1.784276-1.08788352-3.9036241-1.48886049-5.962-1.128 1.718273.30067627 3.3019521 1.12411954 4.535 2.358z" fill="#90ac00"/><path id="Shape" d="m25.712 30.742c.5066789.0989222 1.0217551.1484874 1.538.148.155 0 .308-.011.461-.02.3076868-.6883091.7376429-1.3151166 1.269-1.85-.8936447.8864945-2.0315462 1.4860864-3.268 1.722z" fill="#90ac00"/><path id="Shape" d="m38.35 3.42c1.0813969 1.07989256 1.8458053 2.4357664 2.21 3.92.7268522-.64872286 1.626767-1.07192603 2.59-1.218-.4204456-1.007562-1.0316526-1.9243725-1.8-2.7-1.766088-1.8967968-4.3904611-2.7404129-6.931-2.228 1.4909413.36427723 2.8516804 1.13482042 3.931 2.226z" fill="#90ac00"/><path id="Shape" d="m55.7 30.21c1.0696521-.1384002 2.0658757-.6189729 2.84-1.37 2.27-2.27 1.84-6.38-.96-9.19-1.0798926-1.0813969-2.4357664-1.8458053-3.92-2.21 2.08-2.3 1.62-6.26-1.11-8.99-1.755327-1.89288404-4.3702206-2.73419763-6.9-2.22 1.4806643.36414789 2.8309387 1.13276564 3.9 2.22 2.73 2.73 3.19 6.69 1.11 8.99 1.4842336.3641947 2.8401074 1.1286031 3.92 2.21 2.8 2.81 3.23 6.92.96 9.19-.7741243.7510271-1.7703479 1.2315998-2.84 1.37 1.5354279 1.1789103 2.6112867 2.8567124 3.042 4.744 1.2355503 1.1956708 2.2415017 2.6076632 2.968 4.166.7676418-2.939799-.0767559-6.0663527-2.22-8.22-.2488429-.2460813-.5126808-.476522-.79-.69z" fill="#90ac00"/><path id="Shape" d="m43 31c-4.8663862.0014805-9.3819567 2.5331089-11.922 6.684.2570131.5106242.5581587.9978108.9 1.456.2682004.3640344.562296.7082599.88 1.03 1.8425181-4.9913234 6.3522891-8.5090378 11.642-9.081-.4980581-.0563601-.9987718-.0860691-1.5-.089z" fill="#90ac00"/><path id="Shape" d="m32.86 40.17c-.3761647 1.0268294-.6312229 2.0940465-.76 3.18-2.7840969.8360513-5.3235254 2.3356867-7.4 4.37l-10.71 10.71c-.3990774.3780814-.9320453.5820736-1.4815753.5670694-.54953-.0150043-1.0705726-.2477749-1.4484247-.6470694l-4.21-4.2-4.2-4.21c-.3992945-.3778521-.63206512-.8988947-.64706935-1.4484247s.18898794-1.0824979.56706935-1.4815753l10.71-10.71c2.9954683-3.1596885 4.8532316-7.2270644 5.28-11.56.6847384 1.7034137 1.8267417 3.1845573 3.3 4.28-.308004 2.1246707-.8651752 4.2056717-1.66 6.2-.1748554.4441462-.013871.9500333.3855085 1.2114453s.9274181.2065218 1.2644915-.1314453l5.4-5.41c1.7638677.0374498 3.4685959-.6365125 4.73-1.87-1.2363689 1.2643372-1.9136472 2.9719433-1.88 4.74l-5.4 5.39c-.3379671.3370734-.3928573.865112-.1314453 1.2644915s.7672991.5603639 1.2114453.3855085c1.9943283-.7948248 4.0753293-1.351996 6.2-1.66.2682004.3640344.562296.7082599.88 1.03z" fill="#549414"/><path id="Shape" d="m54.851 46.005-2.751 1.361-4.1-2.366 4.1-2.366 2.751 1.366c.4944616.2405173 1.090346.0367057 1.3339366-.4562491.2435906-.4929549.0434923-1.0900964-.4479366-1.3367509l-1.556-.77.979-.566c.3119508-.1773616.5049532-.5082732.5057421-.8671183s-.1907567-.6906021-.5019247-.8693336c-.3111679-.1787314-.694247-.1770325-1.0038174.0044519l-.98.565.112-1.733c.0169874-.2646893-.0718754-.5252847-.247037-.7244514-.1751617-.1991667-.422272-.3205877-.686963-.3375486-.2660482-.0228778-.5298965.0639117-.730412.2402596s-.3202957.4269492-.331588.6937404l-.196 3.057-4.1 2.368v-4.733l2.555-1.7c.297245-.1982824.4661283-.5400812.4430332-.8966441s-.2346599-.6737196-.555-.832c-.3203401-.1582805-.7007882-.1336383-.9980332.0646441l-1.445.961v-1.132c0-.5522847-.4477153-1-1-1s-1 .4477153-1 1v1.132l-1.445-.964c-.297245-.1982824-.6776931-.2229246-.9980331-.0646441-.3203401.1582805-.5319049.4754371-.555.832s.1457881.6983617.4430331.8966441l2.555 1.703v4.733l-4.1-2.368-.2-3.063c-.0135048-.2659816-.1339253-.5152175-.3339108-.6910993s-.4625613-.2634807-.7280892-.2429007c-.264691.0169609-.5118013.1383819-.686963.3375486-.1751616.1991667-.2640244.4597621-.247037.7244514l.116 1.735-.98-.565c-.3095704-.1814844-.6926495-.1831833-1.0038174-.0044519-.311168.1787315-.5027136.5104885-.5019247.8693336s.1937913.6897567.5057421.8671183l.979.566-1.556.77c-.4962278.2446621-.7001621.8452722-.4555 1.3415s.8452722.7001621 1.3415.4555l2.751-1.366 4.1 2.366-4.1 2.366-2.752-1.361c-.4944616-.2405173-1.090346-.0367057-1.3339366.4562491-.2435906.4929549-.0434923 1.0900964.4479366 1.3367509l1.556.77-.979.566c-.3119508.1773616-.5049532.5082732-.5057421.8671183s.1907567.6906021.5019247.8693336c.3111679.1787314.694247.1770325 1.0038174-.0044519l.98-.565-.112 1.733c-.0169874.2646893.0718754.5252847.247037.7244514.1751617.1991667.422272.3205877.686963.3375486h.065c.5282269.0010828.9661945-.4088549 1-.936l.2-3.063 4.094-2.365v4.733l-2.555 1.7c-.4595009.3065181-.583518.9274991-.2769999 1.387.306518.4595009.927499.583518 1.3869999.277l1.445-.961v1.132c0 .5522847.4477153 1 1 1s1-.4477153 1-1v-1.132l1.445.964c.4595009.306518 1.080482.1825009 1.387-.277s.1825009-1.080482-.277-1.387l-2.555-1.703v-4.733l4.1 2.368.2 3.063c.0338055.5271451.4717731.9370828 1 .936h.065c.264691-.0169609.5118013-.1383819.686963-.3375486.1751616-.1991667.2640244-.4597621.247037-.7244514l-.119-1.737.98.565c.3095704.1814844.6926495.1831833 1.0038174.0044519.311168-.1787315.5027136-.5104885.5019247-.8693336s-.1937913-.6897567-.5057421-.8671183l-.979-.566 1.556-.77c.4914289-.2466545.6915272-.843796.4479366-1.3367509-.2435906-.4929548-.839475-.6967664-1.3339366-.4562491z" fill="#f5f5f5"/><path id="Shape" d="m10.421 45.867c-.4043959-.0000863-.76893405-.2437275-.92367798-.6173454-.15474393-.373618-.06922994-.8036603.21667798-1.0896546l6.427-6.427c.3923789-.3789722 1.0160848-.3735524 1.4018186.0121814s.3911536 1.0094397.0121814 1.4018186l-6.427 6.427c-.1874927.1875494-.4418052.2929434-.707.293z" fill="#f5f5f5"/><path id="Shape" d="m6.851 49.437c-.4043959-.0000863-.76893405-.2437275-.92367798-.6173454-.15474393-.373618-.06922994-.8036603.21667798-1.0896546l.713-.714c.39237889-.3789722 1.01608478-.3735524 1.40181858.0121814.38573379.3857338.39115363 1.0094397.01218142 1.4018186l-.713.714c-.18749273.1875494-.44180519.2929434-.707.293z" fill="#f5f5f5"/><g fill="#000"><path id="Shape" d="m57.641 30.666c.5960238-.2773063 1.1394155-.6559211 1.606-1.119 2.653-2.653 2.223-7.41-.963-10.608-.872399-.8687308-1.905631-1.5592504-3.042-2.033 1.431-2.726.691-6.488-1.985-9.163s-6.438-3.415-9.163-1.985c-.4752346-1.1382593-1.1674331-2.17316059-2.038-3.047-3.194-3.181-7.956-3.611-10.603-.959-.4641844.46642088-.8429271 1.01067319-1.119 1.608-1.7382206-1.51972043-3.9711307-2.35315059-6.28-2.344h-.006c-5.3934043.02193113-9.759723 4.38958925-9.78 9.783-.0099609 2.536169.9967227 4.9705786 2.795 6.759.2053333.2.4156667.3923333.631.577-.9514803 2.1239421-1.0109213 4.5408529-.165 6.709-.4169014 4.0327476-2.1611743 7.8128849-4.959 10.747l-10.711 10.709c-1.17686343 1.2240322-1.14153182 3.1695067.079 4.35l4.2 4.2 4.205 4.2c.5957372.6046916 1.4081517.9466472 2.257.95.7875435.007314 1.544715-.3034869 2.1-.862l10.705-10.709c1.603671-1.5680025 3.5087521-2.7943985 5.6-3.605 0 .059-.009.117-.009.176-.0071786 6.103555 3.684658 11.6028353 9.3364379 13.9073569 5.6517799 2.3045215 12.136353.9546873 16.3991046-3.4136516 4.2627516-4.3683388 5.4535493-10.8839925 3.0114575-16.4777053.6723338-2.9592953-.1086675-6.0617503-2.102-8.35zm-41.373-19.866c.0196992-4.28946653 3.4915387-7.76219839 7.781-7.783 2.0020937-.00929931 3.9246636.78291903 5.339 2.2.2166876.22077563.4197301.45454159.608.7.2456767.31556006.6557364.45440272 1.0425891.35301162.3868527-.10139109.6760965-.42351576.7354109-.81901162.108098-.85750332.4896147-1.65735578 1.088-2.281 1.875-1.875 5.363-1.443 7.773.957.9525753.94929712 1.6260784 2.1420237 1.947 3.448.0819552.34348236.3389909.61827601.6762412.72296115.3372504.10468514.7047102.02373975.9667588-.21296115 1.931-1.745 5.275-1.271 7.618 1.072s2.816 5.687 1.076 7.612c-.2372155.2618941-.318606.6295362-.2140979.9670829.104508.3375467.3793978.5948806.7230979.6769171 1.3041474.3203695 2.4953909.9924329 3.444 1.943 2.4 2.413 2.835 5.9.961 7.776-.6236725.5985137-1.4234565.9803483-2.281 1.089-.3960019.0589487-.7186746.3484069-.8201255.7357055s.0378773.7977755.3541255 1.0432945c1.5646436 1.201397 2.5854107 2.9773014 2.836 4.934-3.1248087-4.1298026-8.1634744-6.3494442-13.3197889-5.867656-5.1563144.4817882-9.6965613 3.5964502-12.0022111 8.233656-1.986-2.849-2.026-6.457.088-8.57.3904653-.3907415.3902414-1.0240347-.0005-1.4145-.3907415-.3904653-1.0240347-.3902414-1.4145.0005-1.2299758 1.1803086-2.9227088 1.7498091-4.616 1.553-1.9698066-.1994095-3.8061786-1.0871427-5.186-2.507-2.611-2.611-3.3-6.379-1.636-8.962.2948029-.4575845.16947-1.0669158-.282-1.371-.3851512-.2611252-.7444528-.5584783-1.073-.888-1.4224511-1.4125262-2.2192195-3.3363691-2.212-5.341zm13.117 25.086c.2061265.8806626.5289822 1.7298406.96 2.525-1.6855816.3357269-3.3378114.8213225-4.937 1.451zm-6.8-5.232c.7933655.4314998 1.6404014.7559895 2.519.965l-3.983 3.973c.6391972-1.5976837 1.1305867-3.2506 1.468-4.938zm1.4 16.359-10.707 10.715c-.4476657.3750059-1.1097433.3373481-1.512-.086l-4.2-4.195v-.005l-4.2-4.206c-.43253078-.4020364-.46793839-1.0747811-.08-1.52l10.698-10.711c2.532132-2.5977566 4.2830587-5.8549722 5.053-9.4.3108178.4130233.6503235.8036554 1.016 1.169.231.231.478.432.722.638-.3021385 1.8589242-.8050817 3.6795786-1.5 5.43-.3619853.8796972-.0465162 1.8924748.751 2.411.3309449.221304.7198809.3399329 1.118.341.5312524-.0017027 1.0399991-.2146999 1.414-.592l5.142-5.144c.5706651-.0225063 1.1374131-.1046193 1.691-.245-.1386684.5501316-.2201011 1.1131232-.243 1.68l-5.154 5.155c-.6899824.6678092-.8079859 1.7317321-.2811112 2.5345072.5268746.8027752 1.5499131 1.1178133 2.4371112.7504928 1.7520603-.6982149 3.5747362-1.2041785 5.436-1.509.047.056.1.112.145.168-.2309889.7275372-.405835 1.4717198-.523 2.226-2.7076244.8979238-5.1750706 2.4009627-7.215 4.395zm22.015 10.987c-7.1797017 0-13-5.8202983-13-13s5.8202983-13 13-13 13 5.8202983 13 13c-.008266 7.1762751-5.8237249 12.991734-13 13z"/><path id="Shape" d="m31.017 14.834c.4640673.2974116 1.0812901.1632328 1.38-.3.8873025-1.3950153 1.2031689-3.0782035.882-4.7-.1104569-.5415152-.6389848-.89095695-1.1805-.7805s-.8909569.6389848-.7805 1.1805c.2218355 1.1134482.0070105 2.2695647-.6 3.229-.2915156.4619598-.1583921 1.0723687.299 1.371z"/><path id="Shape" d="m31.885 16.476c-.3346807.4379079-.2519397 1.0640562.185 1.4 1.3465458 1.04863 2.1172545 2.6727557 2.078 4.379-.0173949.5520078.4159923 1.013601.968 1.031h.032c.5404016.0002597.9832476-.4288581 1-.969.0558122-2.3490829-1.0047923-4.5856638-2.859-6.029-.2109537-.161679-.4775928-.2327271-.7410264-.1974526-.2634336.0352746-.5019874.1739697-.6629736.3854526z"/><path id="Shape" d="m39.146 17.06c.1868009.0000571.3698219-.0526308.528-.152 1.7464188-1.1023651 2.9262994-2.9105175 3.232-4.953.0654825-.3599166-.0707929-.7268647-.3553291-.956793-.2845363-.2299283-.6719155-.2861355-1.0100658-.1465565-.3381503.1395789-.5730958.4526643-.6126051.8163495-.2198423 1.4608781-1.0640248 2.7539775-2.313 3.543-.3794587.2361606-.5561314.6954464-.432763 1.1250287.1233684.4295824.5168185.725139.963763.7239713z"/><path id="Shape" d="m23.988 15.164c.1656397-.0000037.3286256-.0416098.474-.121.9411929-.5024263 2.0345833-.6402127 3.071-.387.5359923.1339291 1.0790709-.1920077 1.213-.728s-.1920077-1.0790709-.728-1.213c-1.5189032-.3707028-3.1211729-.1681047-4.5.569-.4029916.2175118-.6067381.680969-.4945591 1.1249617s.5116141.7550504.9695591.7550383z"/><path id="Shape" d="m44.41 22.7c.2250247.1404754.4966442.1857853.7550821.1259582.2584379-.059827.4825151-.2198882.6229179-.4449582.789645-1.2486454 2.0830294-2.0924108 3.544-2.312.5467619-.0792529.9257529-.5867381.8465-1.1335s-.5867381-.9257529-1.1335-.8465c-2.0418091.3074804-3.8490938 1.4873979-4.952 3.233-.2928947.4680769-.150985 1.0849586.317 1.378z"/></g></g></g></svg>