<svg height="512" viewBox="0 0 44 60" width="512" xmlns="http://www.w3.org/2000/svg"><g id="Page-1" fill="none" fill-rule="evenodd"><g id="004---Fozen-Food" fill-rule="nonzero"><rect id="Rectangle-path" fill="#02a9f4" height="48" rx="4" width="42" x="1" y="6"/><path id="Shape" d="m39 6h-3c2.209139 0 4 1.790861 4 4v40c0 2.209139-1.790861 4-4 4h3c2.209139 0 4-1.790861 4-4v-40c0-2.209139-1.790861-4-4-4z" fill="#0377bc"/><path id="Shape" d="m42.88 2.16c-.27 1.47-1.13 3.84-3.88 3.84h-34c-2.75 0-3.61-2.37-3.88-3.84-.04955036-.29032322.03233245-.5876626.22352682-.81168832.19119436-.22402572.47197044-.35161999.76647318-.34831168h39.78c.2945027-.00330831.5752788.12428596.7664732.34831168.1911943.22402572.2730772.5213651.2235268.81168832z" fill="#3f51b5"/><path id="Shape" d="m41.89 1h-3c.2945027-.00330831.5752788.12428596.7664732.34831168.1911943.22402572.2730772.5213651.2235268.81168832-.27 1.47-1.13 3.84-3.88 3.84h3c2.75 0 3.61-2.37 3.88-3.84.0495504-.29032322-.0323325-.5876626-.2235268-.81168832-.1911944-.22402572-.4719705-.35161999-.7664732-.34831168z" fill="#283593"/><path id="Shape" d="m42.88 57.84c.0495504.2903232-.0323325.5876626-.2235268.8116883-.1911944.2240257-.4719705.35162-.7664732.3483117h-39.78c-.29450274.0033083-.57527882-.124286-.76647318-.3483117-.19119437-.2240257-.27307718-.5213651-.22352682-.8116883.27-1.47 1.13-3.84 3.88-3.84h34c2.75 0 3.61 2.37 3.88 3.84z" fill="#3f51b5"/><path id="Shape" d="m39 54h-3c2.75 0 3.61 2.37 3.88 3.84.0495504.2903232-.0323325.5876626-.2235268.8116883-.1911944.2240257-.4719705.35162-.7664732.3483117h3c.2945027.0033083.5752788-.124286.7664732-.3483117.1911943-.2240257.2730772-.5213651.2235268-.8116883-.27-1.47-1.13-3.84-3.88-3.84z" fill="#283593"/><circle id="Oval" cx="22" cy="25" fill="#f5f5f5" r="15"/><path id="Shape" d="m22 10c-.506 0-1.007.027-1.5.076 7.6612948.774165 13.491947 7.2236903 13.491947 14.924s-5.8306522 14.149835-13.491947 14.924c.493.049.994.076 1.5.076 8.2842712 0 15-6.7157288 15-15s-6.7157288-15-15-15z" fill="#cfd8dc"/><path id="Shape" d="m31.717 26.505-2.752 1.361-4.965-2.866 4.965-2.866 2.752 1.366c.321539.1577328.7028028.1319448 1.0001729-.0676498s.4656689-.5426726.4415-.9c-.024169-.3573273-.2371339-.6746174-.5586729-.8323502l-1.557-.77.979-.566c.3119508-.1773616.5049532-.5082732.5057421-.8671183s-.1907567-.6906021-.5019247-.8693336c-.3111679-.1787314-.694247-.1770325-1.0038174.0044519l-.979.566.111-1.734c.0356223-.5522847-.3832153-1.0288776-.9355-1.0645-.5522847-.0356223-1.0288776.3832153-1.0645.9355l-.2 3.064-4.954 2.869v-5.733l2.555-1.7c.297245-.1982824.4661283-.5400812.4430332-.8966441s-.2346599-.6737195-.555-.832-.7007882-.1336383-.9980332.0646441l-1.445.961v-1.132c0-.5522847-.4477153-1-1-1s-1 .4477153-1 1v1.132l-1.445-.964c-.4595009-.306518-1.080482-.1825009-1.387.277s-.1825009 1.080482.277 1.387l2.555 1.703v5.733l-4.965-2.868-.2-3.064c-.0356224-.5522847-.5122153-.9711224-1.0645-.9355s-.9711224.5122153-.9355 1.0645l.111 1.734-.979-.566c-.3095704-.1814844-.6926495-.1831833-1.0038174-.0044519-.311168.1787315-.5027136.5104885-.5019247.8693336s.1937913.6897567.5057421.8671183l.979.566-1.546.769c-.4951233.2449383-.6979383.8448767-.453 1.34s.8448767.6979383 1.34.453l2.752-1.361 4.961 2.868-4.965 2.866-2.752-1.361c-.3206459-.1577328-.7010843-.1324213-.9980078.0663998s-.4652224.5409461-.4415.8975c.0237224.3565538.2358619.6733674.5565078.8311002l1.557.77-.979.566c-.3119508.1773616-.5049532.5082732-.5057421.8671183s.1907567.6906021.5019247.8693336c.3111679.1787314.694247.1770325 1.0038174-.0044519l.979-.566-.111 1.734c-.0353867.5508238.3822059 1.0261542.933 1.062h.066c.5278654.0011162.9656899-.4082497 1-.935l.2-3.064 4.955-2.867v5.733l-2.555 1.7c-.297245.1982824-.4661282.5400812-.4430331.8966441s.2346599.6737195.555.832c.32034.1582805.7007881.1336383.9980331-.0646441l1.445-.961v1.132c0 .5522847.4477153 1 1 1s1-.4477153 1-1v-1.132l1.445.964c.297245.1982824.6776931.2229246.9980332.0646441.3203401-.1582804.5319049-.4754371.555-.832s-.1457882-.6983617-.4430332-.8966441l-2.555-1.703v-5.733l4.965 2.868.2 3.064c.0343101.5267503.4721346.9361162 1 .935h.066c.5507941-.0358458.9683867-.5111762.933-1.062l-.117-1.737.979.566c.3095704.1814844.6926495.1831833 1.0038174.0044519.311168-.1787315.5027136-.5104885.5019247-.8693336s-.1937913-.6897567-.5057421-.8671183l-.979-.566 1.553-.768c.4951233-.2449383.6979383-.8448767.453-1.34s-.8448767-.6979383-1.34-.453z" fill="#02a9f4"/><g fill="#000"><path id="Shape" d="m2.061 54.025c-1.05343295.9470373-1.73545522 2.2380586-1.924 3.642-.10389019.5740848.05336337 1.1646104.429 1.611.3814362.4580686.94691281.7226662 1.543.722h39.782c.5960872.0006662 1.1615638-.2639314 1.543-.722.3756366-.4463896.5328902-1.0369152.429-1.611-.1885448-1.4039414-.8705671-2.6949627-1.924-3.642 1.2911388-.9348753 2.0572-2.4309433 2.061-4.025v-40c-.0038-1.5940567-.7698612-3.09012472-2.061-4.025 1.0534329-.94703725 1.7354552-2.23805862 1.924-3.642.1038902-.57408481-.0533634-1.16461041-.429-1.611-.3814362-.45806855-.9469128-.72266616-1.543-.722h-39.782c-.59608719-.00066616-1.1615638.26393145-1.543.722-.37563663.44638959-.53289019 1.03691519-.429 1.611.18854478 1.40394138.87056705 2.69496275 1.924 3.642-1.29113881.93487528-2.05719997 2.4309433-2.061 4.025v40c.00380003 1.5940567.76986119 3.0901247 2.061 4.025zm39.839 3.975c-.0025505.0011131-.0054495.0011131-.008 0h-2.892c0-.5522847-.4477153-1-1-1s-1 .4477153-1 1h-2c0-.5522847-.4477153-1-1-1s-1 .4477153-1 1v.005h-2v-.005c0-.5522847-.4477153-1-1-1s-1 .4477153-1 1v.007h-2v-.007c0-.5522847-.4477153-1-1-1s-1 .4477153-1 1v.01h-2v-.01c0-.5522847-.4477153-1-1-1s-1 .4477153-1 1v.012h-2v-.012c0-.5522847-.4477153-1-1-1s-1 .4477153-1 1v.014h-2v-.014c0-.5522847-.4477153-1-1-1s-1 .4477153-1 1v.017h-2v-.017c0-.5522847-.4477153-1-1-1-.55228475 0-1 .4477153-1 1v.019h-2v-.019c0-.5522847-.44771525-1-1-1s-1 .4477153-1 1v.021h-2.895c.364-2.004 1.337-3.021 2.895-3.021h34c1.558 0 2.531 1.017 2.9 3zm-39.791-56h2.891c0 .55228475.44771525 1 1 1s1-.44771525 1-1h2c0 .55228475.44771525 1 1 1 .5522847 0 1-.44771525 1-1h2c0 .55228475.4477153 1 1 1s1-.44771525 1-1h2c0 .55228475.4477153 1 1 1s1-.44771525 1-1h2c0 .55228475.4477153 1 1 1s1-.44771525 1-1h2c0 .55228475.4477153 1 1 1s1-.44771525 1-1h2c0 .55228475.4477153 1 1 1s1-.44771525 1-1h2c0 .55228475.4477153 1 1 1s1-.44771525 1-1h2c0 .55228475.4477153 1 1 1s1-.44771525 1-1h2.89c-.368 1.99-1.339 3-2.89 3h-34c-1.558 0-2.531-1.017-2.891-3zm-.109 8c0-1.65685425 1.34314575-3 3-3h34c1.6568542 0 3 1.34314575 3 3v40c0 1.6568542-1.3431458 3-3 3h-34c-1.65685425 0-3-1.3431458-3-3z"/><path id="Shape" d="m22 41c8.836556 0 16-7.163444 16-16s-7.163444-16-16-16-16 7.163444-16 16c.01046962 8.8322157 7.1677843 15.9895304 16 16zm0-30c7.7319865 0 14 6.2680135 14 14s-6.2680135 14-14 14-14-6.2680135-14-14c.00826732-7.7285595 6.2714405-13.9917327 14-14z"/><path id="Shape" d="m9 44h-1c-.55228475 0-1 .4477153-1 1s.44771525 1 1 1h1c.55228475 0 1-.4477153 1-1s-.44771525-1-1-1z"/><path id="Shape" d="m36 44h-1c-.5522847 0-1 .4477153-1 1s.4477153 1 1 1h1c.5522847 0 1-.4477153 1-1s-.4477153-1-1-1z"/><path id="Shape" d="m31 44h-18c-.5522847 0-1 .4477153-1 1s.4477153 1 1 1h18c.5522847 0 1-.4477153 1-1s-.4477153-1-1-1z"/><path id="Shape" d="m9 48h-1c-.55228475 0-1 .4477153-1 1s.44771525 1 1 1h1c.55228475 0 1-.4477153 1-1s-.44771525-1-1-1z"/><path id="Shape" d="m36 48h-1c-.5522847 0-1 .4477153-1 1s.4477153 1 1 1h1c.5522847 0 1-.4477153 1-1s-.4477153-1-1-1z"/><path id="Shape" d="m31 48h-18c-.5522847 0-1 .4477153-1 1s.4477153 1 1 1h18c.5522847 0 1-.4477153 1-1s-.4477153-1-1-1z"/></g></g></g></svg>