<?xml version="1.0" encoding="iso-8859-1"?>
<!-- Generator: Adobe Illustrator 19.0.0, SVG Export Plug-In . SVG Version: 6.00 Build 0)  -->
<svg version="1.1" id="Capa_1" xmlns="http://www.w3.org/2000/svg" xmlns:xlink="http://www.w3.org/1999/xlink" x="0px" y="0px"
	 viewBox="0 0 464.013 464.013" style="enable-background:new 0 0 464.013 464.013;" xml:space="preserve">
<circle style="fill:#F9E0A0;" cx="232.007" cy="72.013" r="72"/>
<path style="fill:#8F563B;" d="M192.007,64.013c0,8.837,7.163,16,16,16s16-7.163,16-16v-16c0-8.837,7.163-16,16-16
	c8.837,0,16,7.163,16,16s7.163,16,16,16s16-7.163,16-16v-8h8.424C278.814,4.428,235.685-10.137,200.1,7.48
	c-16.795,8.315-29.68,22.859-35.909,40.534h27.816V64.013z"/>
<circle style="fill:#85BC94;" cx="288.007" cy="168.013" r="64"/>
<g>
	<path style="fill:#8F563B;" d="M264.007,168.013h16v16h-16V168.013z"/>
	<path style="fill:#8F563B;" d="M304.007,176.013h16v16h-16V176.013z"/>
	<path style="fill:#8F563B;" d="M296.007,144.013h16v16h-16V144.013z"/>
</g>
<path style="fill:#F7BA61;" d="M232.007,464.013l-80-240h160L232.007,464.013z"/>
<g>
	<path style="fill:#EA9D2D;" d="M200.007,312.013c-4.418-0.004-7.997-3.589-7.993-8.007c0.001-1.578,0.469-3.12,1.345-4.433l16-24
		c2.452-3.676,7.42-4.668,11.096-2.216c3.676,2.452,4.668,7.42,2.216,11.096l-16,24C205.185,310.68,202.684,312.016,200.007,312.013
		z"/>
	<path style="fill:#EA9D2D;" d="M248.007,312.013c-4.418-0.004-7.997-3.589-7.993-8.007c0.001-1.578,0.469-3.121,1.345-4.433l16-24
		c2.452-3.676,7.42-4.668,11.096-2.216s4.668,7.42,2.216,11.096l-16,24C253.185,310.68,250.684,312.016,248.007,312.013z"/>
</g>
<path style="fill:#DBDBDB;" d="M285.343,304.013H178.671l53.336,160L285.343,304.013z"/>
<path style="fill:#F790B0;" d="M240.007,168.013c0.055-35.346-28.554-64.045-63.9-64.1c-35.346-0.055-64.045,28.554-64.1,63.9
	c-0.024,15.623,5.666,30.715,16,42.432v45.768c0,8.837,7.163,16,16,16s16-7.163,16-16v-16c0.005-3.35,1.069-6.612,3.04-9.32
	c8.55,1.76,17.37,1.76,25.92,0c1.971,2.708,3.035,5.97,3.04,9.32c0,8.837,7.163,16,16,16s16-7.163,16-16v-29.768
	C234.321,198.596,240.013,183.573,240.007,168.013z"/>
<g>
</g>
<g>
</g>
<g>
</g>
<g>
</g>
<g>
</g>
<g>
</g>
<g>
</g>
<g>
</g>
<g>
</g>
<g>
</g>
<g>
</g>
<g>
</g>
<g>
</g>
<g>
</g>
<g>
</g>
</svg>
