<?xml version="1.0" encoding="iso-8859-1"?>
<!-- Generator: Adobe Illustrator 19.0.0, SVG Export Plug-In . SVG Version: 6.00 Build 0)  -->
<svg version="1.1" id="Capa_1" xmlns="http://www.w3.org/2000/svg" xmlns:xlink="http://www.w3.org/1999/xlink" x="0px" y="0px"
	 viewBox="0 0 431.988 431.988" style="enable-background:new 0 0 431.988 431.988;" xml:space="preserve">
<path style="fill:#F3AF3E;" d="M215.994,127.988c88.366,0,160,71.634,160,160l0,0h-320l0,0
	C55.994,199.623,127.629,127.988,215.994,127.988z"/>
<path style="fill:#EBEBEB;" d="M327.994,431.988h-224l-48-144h320L327.994,431.988z"/>
<g>
	<circle style="fill:#EA9D2D;" cx="215.994" cy="295.988" r="40"/>
	<circle style="fill:#EA9D2D;" cx="295.994" cy="295.988" r="40"/>
	<circle style="fill:#EA9D2D;" cx="375.994" cy="295.988" r="40"/>
	<circle style="fill:#EA9D2D;" cx="135.994" cy="295.988" r="40"/>
	<circle style="fill:#EA9D2D;" cx="55.994" cy="295.988" r="40"/>
</g>
<g>
	<path style="fill:#DA922A;" d="M215.994,223.988l-6.664-9.992c-5.848-8.769-7.003-19.854-3.088-29.64l9.752-24.368l9.752,24.368
		c3.915,9.786,2.76,20.871-3.088,29.64L215.994,223.988z"/>
	<path style="fill:#DA922A;" d="M149.458,218.228l-1.92-11.856c-1.684-10.403,1.862-20.967,9.48-28.248l18.976-18.136l-1.232,26.216
		c-0.496,10.526-6.141,20.133-15.096,25.688L149.458,218.228z"/>
	<path style="fill:#DA922A;" d="M282.53,218.228l1.92-11.856c1.684-10.403-1.862-20.967-9.48-28.248l-18.976-18.136l1.232,26.216
		c0.496,10.526,6.141,20.133,15.096,25.688L282.53,218.228z"/>
</g>
<g>
	<path style="fill:#B9B9B9;" d="M335.994,407.988h-240c-4.418,0-8-3.582-8-8s3.582-8,8-8h240c4.418,0,8,3.582,8,8
		S340.412,407.988,335.994,407.988z"/>
	<path style="fill:#B9B9B9;" d="M343.994,375.988h-256c-4.418,0-8-3.582-8-8s3.582-8,8-8h256c4.418,0,8,3.582,8,8
		S348.412,375.988,343.994,375.988z"/>
</g>
<path style="fill:#F9E0A0;" d="M135.418,103.988c-4.418,0.001-8.001-3.581-8.001-7.999c0-2.185,0.893-4.276,2.473-5.785
	c1.6-1.512,3.28-2.944,4.984-4.36c5.992-5,9.12-7.888,9.12-13.856s-3.128-8.864-9.128-13.856
	c-8.904-5.787-14.449-15.533-14.872-26.144c0.416-10.624,5.972-20.381,14.896-26.16c1.416-1.184,2.84-2.352,4.16-3.624
	c3.203-3.046,8.27-2.919,11.316,0.284c3.046,3.203,2.919,8.27-0.284,11.316l0,0c-1.6,1.496-3.256,2.904-4.952,4.32
	c-6,4.984-9.136,7.864-9.136,13.864s3.128,8.856,9.12,13.848c8.911,5.785,14.459,15.536,14.88,26.152
	c-0.416,10.613-5.958,20.364-14.864,26.152c-1.432,1.184-2.864,2.4-4.192,3.64C139.45,103.198,137.473,103.989,135.418,103.988
	L135.418,103.988z"/>
<path id="SVGCleanerId_0" style="fill:#F9E0A0;" d="M215.418,103.988c-4.418,0.001-8.001-3.581-8.001-7.999
	c0-2.185,0.893-4.276,2.473-5.785c1.6-1.512,3.28-2.944,4.984-4.36c5.992-5,9.12-7.888,9.12-13.856s-3.128-8.864-9.128-13.856
	c-8.904-5.787-14.449-15.533-14.872-26.144c0.416-10.624,5.972-20.381,14.896-26.16c1.416-1.184,2.84-2.352,4.16-3.624
	c3.203-3.046,8.27-2.919,11.316,0.284c3.046,3.203,2.919,8.27-0.284,11.316c-1.6,1.496-3.256,2.904-4.952,4.32
	c-6,4.984-9.136,7.864-9.136,13.864s3.128,8.856,9.12,13.848c8.911,5.785,14.459,15.536,14.88,26.152
	c-0.416,10.613-5.958,20.364-14.864,26.152c-1.432,1.184-2.864,2.4-4.192,3.64C219.45,103.198,217.473,103.989,215.418,103.988
	L215.418,103.988z"/>
<path style="fill:#F9E0A0;" d="M295.418,103.988c-4.418,0.001-8.001-3.58-8.001-7.999c0-2.185,0.893-4.276,2.473-5.785
	c1.6-1.512,3.28-2.944,4.984-4.36c5.992-5,9.12-7.888,9.12-13.856s-3.128-8.864-9.128-13.856
	c-8.904-5.787-14.449-15.533-14.872-26.144c0.416-10.624,5.972-20.381,14.896-26.16c1.416-1.184,2.84-2.352,4.16-3.624
	c3.203-3.046,8.27-2.919,11.316,0.284c3.046,3.203,2.919,8.27-0.284,11.316c-1.6,1.496-3.256,2.904-4.952,4.32
	c-6,4.984-9.136,7.864-9.136,13.864s3.128,8.856,9.12,13.848c8.911,5.785,14.459,15.536,14.88,26.152
	c-0.416,10.613-5.958,20.364-14.864,26.152c-1.432,1.184-2.864,2.4-4.192,3.64C299.45,103.198,297.473,103.989,295.418,103.988
	L295.418,103.988z"/>
<g>
	<path id="SVGCleanerId_0_1_" style="fill:#F9E0A0;" d="M215.418,103.988c-4.418,0.001-8.001-3.581-8.001-7.999
		c0-2.185,0.893-4.276,2.473-5.785c1.6-1.512,3.28-2.944,4.984-4.36c5.992-5,9.12-7.888,9.12-13.856s-3.128-8.864-9.128-13.856
		c-8.904-5.787-14.449-15.533-14.872-26.144c0.416-10.624,5.972-20.381,14.896-26.16c1.416-1.184,2.84-2.352,4.16-3.624
		c3.203-3.046,8.27-2.919,11.316,0.284c3.046,3.203,2.919,8.27-0.284,11.316c-1.6,1.496-3.256,2.904-4.952,4.32
		c-6,4.984-9.136,7.864-9.136,13.864s3.128,8.856,9.12,13.848c8.911,5.785,14.459,15.536,14.88,26.152
		c-0.416,10.613-5.958,20.364-14.864,26.152c-1.432,1.184-2.864,2.4-4.192,3.64C219.45,103.198,217.473,103.989,215.418,103.988
		L215.418,103.988z"/>
</g>
<g>
</g>
<g>
</g>
<g>
</g>
<g>
</g>
<g>
</g>
<g>
</g>
<g>
</g>
<g>
</g>
<g>
</g>
<g>
</g>
<g>
</g>
<g>
</g>
<g>
</g>
<g>
</g>
<g>
</g>
</svg>
