<svg height="512" viewBox="0 0 256 256" width="512" xmlns="http://www.w3.org/2000/svg"><path d="m218.969 94.953v-86.627h-35.269v86.627a18.825 18.825 0 0 0 -18.808 17.772c-.028.354-.035.709-.035 1.07l.032 96.95a6.947 6.947 0 0 0 6.948 6.945h59.023a6.948 6.948 0 0 0 6.948-6.948v-96.942a18.839 18.839 0 0 0 -18.839-18.847z" fill="#44c7b6"/><path d="m179.89 112.72c-.03.36-.04.71-.04 1.07l.04 96.95a6.946 6.946 0 0 0 6.94 6.95h-15a6.946 6.946 0 0 1 -6.94-6.95l-.04-96.95c0-.36.01-.71.04-1.07a18.829 18.829 0 0 1 18.81-17.77v-86.62h15v86.62a18.829 18.829 0 0 0 -18.81 17.77z" fill="#4bdbc3"/><path d="m73.068 93.242v-86.627h-35.274v86.627a18.825 18.825 0 0 0 -18.808 17.772c-.028.354-.035.709-.035 1.07l.032 96.95a6.947 6.947 0 0 0 6.948 6.945h59.023a6.948 6.948 0 0 0 6.948-6.948v-96.947a18.838 18.838 0 0 0 -18.834-18.842z" fill="#44c7b6"/><path d="m33.99 111.01c-.03.36-.04.71-.04 1.07l.03 96.95a6.948 6.948 0 0 0 6.95 6.95h-15a6.948 6.948 0 0 1 -6.95-6.95l-.03-96.95c0-.36.01-.71.04-1.07a18.829 18.829 0 0 1 18.8-17.77v-86.63h15v86.63a18.829 18.829 0 0 0 -18.8 17.77z" fill="#4bdbc3"/><path d="m73.444 20.81h-36.026a3 3 0 0 1 -3-3v-9.435a3 3 0 0 1 3-3h36.026a3 3 0 0 1 3 3v9.435a3 3 0 0 1 -3 3z" fill="#3bb2a0"/><path d="m146.018 93.242v-86.627h-35.274v86.627a18.825 18.825 0 0 0 -18.808 17.772c-.028.354-.035.709-.035 1.07l.032 96.95a6.947 6.947 0 0 0 6.948 6.945h59.019a6.948 6.948 0 0 0 6.948-6.948v-96.947a18.838 18.838 0 0 0 -18.83-18.842z" fill="#44c7b6"/><path d="m106.94 111.01c-.03.36-.04.71-.04 1.07l.03 96.95a6.948 6.948 0 0 0 6.95 6.95h-15a6.948 6.948 0 0 1 -6.95-6.95l-.03-96.95c0-.36.01-.71.04-1.07a18.829 18.829 0 0 1 18.8-17.77v-86.63h15v86.63a18.829 18.829 0 0 0 -18.8 17.77z" fill="#4bdbc3"/><path d="m146.394 20.81h-36.026a3 3 0 0 1 -3-3v-9.435a3 3 0 0 1 3-3h36.026a3 3 0 0 1 3 3v9.435a3 3 0 0 1 -3 3z" fill="#3bb2a0"/><path d="m219.342 22.52h-36.026a3 3 0 0 1 -3-3v-9.434a3 3 0 0 1 3-3h36.026a3 3 0 0 1 3 3v9.435a3 3 0 0 1 -3 2.999z" fill="#3bb2a0"/><path d="m6.02 128.125v112.5a10 10 0 0 0 10 10h223.96a10 10 0 0 0 10-10v-112.5z" fill="#b76c6c"/><path d="m31.02 250.62h-15a10 10 0 0 1 -10-10v-112.5h15v112.5a10 10 0 0 0 10 10z" fill="#c98585"/><path d="m249.98 128.12v112.5a10 10 0 0 1 -10 10h-15a10 10 0 0 0 10-10v-112.5z" fill="#965959"/><g fill="#5f266d"><path d="m234.98 46.805h-12.01v-21.305a7 7 0 0 0 3.372-5.974v-9.44a7.008 7.008 0 0 0 -7-7h-36.026a7.008 7.008 0 0 0 -7 7v9.434a7 7 0 0 0 3.384 5.98v21.3h-29.678v-23.014a7 7 0 0 0 3.378-5.976v-9.435a7.008 7.008 0 0 0 -7-7h-36.03a7.008 7.008 0 0 0 -7 7v9.435a7 7 0 0 0 3.372 5.975v23.02h-29.672v-23.019a6.993 6.993 0 0 0 3.374-5.976v-9.435a7.008 7.008 0 0 0 -7-7h-36.026a7.008 7.008 0 0 0 -7 7v9.435a7 7 0 0 0 3.372 5.975v23.02h-12.77a19.022 19.022 0 0 0 -19 19v174.82a14.015 14.015 0 0 0 14 14h223.96a14.015 14.015 0 0 0 14-14v-174.82a19.022 19.022 0 0 0 -19-19zm11 160.574h-235.96v-36.008h235.96zm-235.96-44.008v-31.246h235.96v31.246zm31.77-70.131v-68.43h27.28v68.43a4 4 0 0 0 4 4 14.851 14.851 0 0 1 14.83 14.84v12.045h-64.95c0-3-.02-11.818.034-12.9a14.828 14.828 0 0 1 14.806-13.985 4 4 0 0 0 4-4zm68.952 4a4 4 0 0 0 4-4v-68.43h27.28v25.966.029s0 .019 0 .029v42.406a4 4 0 0 0 4 4 14.852 14.852 0 0 1 14.83 14.84v12.045h-64.952c0-.5-.016-12.283.027-12.78 0-.04.006-.079.008-.118a14.826 14.826 0 0 1 14.807-13.987zm76.958-2.29v-68.43h27.27v68.43a4 4 0 0 0 4 4 14.857 14.857 0 0 1 14.83 14.85v10.325h-64.943c0-.558-.024-10.526.019-11.08 0-.036.006-.071.008-.107a14.829 14.829 0 0 1 14.816-13.988 4 4 0 0 0 4-4zm47.28-40.145a11.012 11.012 0 0 1 11 11v58.32h-4.18v-10.325a22.884 22.884 0 0 0 -18.83-22.5v-36.5zm-50.664-43.719h34.026v7.434h-34.026zm-4.616 43.719v36.495a22.517 22.517 0 0 0 -14.266 8.8 22.874 22.874 0 0 0 -15.412-10.51v-34.785zm-68.33-45.43h34.03v7.435h-34.03zm-4.628 45.43v34.782a22.9 22.9 0 0 0 -14.852 9.6 22.864 22.864 0 0 0 -14.82-9.6v-34.782zm-68.324-45.43h34.026v7.435h-34.026zm-17.4 45.43h12.772v34.782a22.844 22.844 0 0 0 -18.79 21.149c-.08 1-.049 1.181-.049 13.389h-4.931v-58.32a11.012 11.012 0 0 1 11-11zm218.96 191.82h-223.958a6.006 6.006 0 0 1 -6-6v-25.246h235.96v25.246a6.006 6.006 0 0 1 -6 6z"/><path d="m227 187.792h3.333a4 4 0 0 0 0-8h-3.333a4 4 0 0 0 0 8z"/><path d="m189 187.792h23a4 4 0 0 0 0-8h-23a4 4 0 0 0 0 8z"/></g></svg>