<?xml version="1.0" encoding="iso-8859-1"?>
<!-- Generator: Adobe Illustrator 19.0.0, SVG Export Plug-In . SVG Version: 6.00 Build 0)  -->
<svg version="1.1" id="Capa_1" xmlns="http://www.w3.org/2000/svg" xmlns:xlink="http://www.w3.org/1999/xlink" x="0px" y="0px"
	 viewBox="0 0 480 480" style="enable-background:new 0 0 480 480;" xml:space="preserve">
<path style="fill:#EA9D2D;" d="M375.592,356h-175.2c-4.149,0.017-7.622-3.14-8-7.272c-0.224-2.88-0.392-5.784-0.392-8.728
	c0.021-53.019,43.019-95.983,96.038-95.962C341.028,244.059,383.979,287.011,384,340c0,2.944-0.168,5.856-0.44,8.728
	C383.184,352.848,379.729,356.001,375.592,356z"/>
<path style="fill:#DA922A;" d="M335.28,356h-94.56c-3.905,0-7.24-2.821-7.888-6.672c-5.311-30.468,15.082-59.474,45.551-64.785
	c30.468-5.311,59.474,15.082,64.785,45.551c1.109,6.364,1.109,12.871,0,19.235C342.52,353.179,339.185,356,335.28,356z M248,340h80
	c0-22.091-17.909-40-40-40S248,317.909,248,340z"/>
<path style="fill:#F3AF3E;" d="M471.592,420h-175.2c-4.149,0.017-7.622-3.14-8-7.272c-0.224-2.88-0.392-5.784-0.392-8.728
	c0-53.019,42.981-96,96-96s96,42.981,96,96c0,2.944-0.168,5.848-0.44,8.728C479.184,416.848,475.729,420.001,471.592,420
	L471.592,420z"/>
<path style="fill:#DA922A;" d="M431.28,420h-94.56c-3.905,0-7.24-2.821-7.888-6.672c-5.311-30.468,15.082-59.474,45.551-64.785
	c30.468-5.311,59.474,15.082,64.785,45.551c1.109,6.364,1.109,12.871,0,19.235C438.52,417.179,435.185,420,431.28,420z M344,404h80
	c0-22.091-17.909-40-40-40S344,381.909,344,404z"/>
<path style="fill:#CDCDCD;" d="M208,68H104c-4.418,0-8-3.582-8-8s3.582-8,8-8h104c4.418,0,8,3.582,8,8S212.418,68,208,68z"/>
<path style="fill:#EA9D2D;" d="M152,340c0-54.68,32-54.68,32-109.36S152,176,152,121.28S184,66.64,184,12h-80
	c0,54.64-32,54.64-32,109.28s32,54.68,32,109.36S72,285.32,72,340H152z"/>
<path style="fill:#DA922A;" d="M112,348c-4.418,0-8-3.582-8-8c-0.477-20.866,5.493-41.371,17.096-58.72
	c10.102-14.924,15.311-32.622,14.904-50.64c0.406-18.017-4.803-35.715-14.904-50.64c-11.603-17.346-17.573-37.849-17.096-58.712
	c-0.474-20.855,5.496-41.35,17.096-58.688C131.196,47.689,136.405,30.005,136,12c0-4.418,3.582-8,8-8s8,3.582,8,8
	c0.478,20.854-5.492,41.346-17.096,58.68c-10.1,14.913-15.309,32.601-14.904,50.608c-0.406,18.015,4.803,35.71,14.904,50.632
	c11.603,17.349,17.573,37.854,17.096,58.72c0.478,20.866-5.492,41.372-17.096,58.72C124.803,304.285,119.595,321.983,120,340
	C120,344.418,116.418,348,112,348L112,348z"/>
<g>
	<path style="fill:#D9D9D9;" d="M208,20H104c-4.418,0-8-3.582-8-8s3.582-8,8-8h104c4.418,0,8,3.582,8,8S212.418,20,208,20z"/>
	<path style="fill:#D9D9D9;" d="M208,116H104c-4.418,0-8-3.582-8-8s3.582-8,8-8h104c4.418,0,8,3.582,8,8S212.418,116,208,116z"/>
</g>
<path style="fill:#F3AF3E;" d="M327.592,420h-175.2c-4.149,0.017-7.622-3.14-8-7.272c-0.224-2.88-0.392-5.784-0.392-8.728
	c0.021-53.019,43.019-95.983,96.038-95.962C293.028,308.059,335.979,351.011,336,404c0,2.944-0.168,5.848-0.44,8.728
	C335.184,416.848,331.729,420.001,327.592,420z"/>
<path style="fill:#A66444;" d="M440,276c-4.418,0-8-3.583-7.999-8.001c0-1.083,0.22-2.155,0.647-3.151l24-56
	c1.683-4.085,6.359-6.032,10.444-4.349c4.085,1.683,6.032,6.359,4.349,10.444c-0.029,0.07-0.059,0.14-0.09,0.209l-24,56
	C446.091,274.093,443.2,276,440,276L440,276z"/>
<path style="fill:#DA922A;" d="M287.28,420h-94.56c-3.905,0-7.24-2.821-7.888-6.672c-5.311-30.468,15.082-59.474,45.551-64.785
	c30.468-5.311,59.474,15.082,64.785,45.551c1.109,6.364,1.109,12.871,0,19.235C294.52,417.179,291.185,420,287.28,420z M200,404h80
	c0-22.091-17.909-40-40-40S200,381.909,200,404z"/>
<path style="fill:#5E8569;" d="M432,324c-22.091,0-40-17.909-40-40s17.909-40,40-40s40,17.909,40,40
	C471.974,306.08,454.08,323.974,432,324z"/>
<path style="fill:#CDCDCD;" d="M264,44h208v32H264V44z"/>
<path style="fill:#F3AF3E;" d="M183.592,420H8.408c-4.149,0.017-7.622-3.14-8-7.272C0.168,409.848,0,406.944,0,404
	c0.012-53.019,43.002-95.99,96.021-95.979C149.024,308.033,191.988,350.997,192,404c0,2.944-0.168,5.848-0.44,8.728
	C191.184,416.848,187.729,420.001,183.592,420L183.592,420z"/>
<path style="fill:#DA922A;" d="M143.28,420H48.72c-3.905,0-7.24-2.821-7.888-6.672c-5.311-30.468,15.082-59.474,45.551-64.785
	c30.468-5.311,59.474,15.082,64.785,45.551c1.109,6.364,1.109,12.871,0,19.235C150.52,417.179,147.185,420,143.28,420z M56,404h80
	c0-22.091-17.909-40-40-40S56,381.909,56,404z"/>
<path style="fill:#B9B9B9;" d="M40,444h400l0,0c0,17.673-14.327,32-32,32H72C54.327,476,40,461.673,40,444L40,444z"/>
<g>
	<path style="fill:#D9D9D9;" d="M448,452H32c-17.673,0-32-14.327-32-32v-8c0-4.418,3.582-8,8-8h464c4.418,0,8,3.582,8,8v8
		C480,437.673,465.673,452,448,452z"/>
	<path style="fill:#D9D9D9;" d="M232,116h-24c-4.418,0-8-3.582-8-8V12c0-4.418,3.582-8,8-8h24c22.08,0.026,39.974,17.92,40,40v32
		C271.974,98.08,254.08,115.974,232,116z"/>
</g>
<g>
</g>
<g>
</g>
<g>
</g>
<g>
</g>
<g>
</g>
<g>
</g>
<g>
</g>
<g>
</g>
<g>
</g>
<g>
</g>
<g>
</g>
<g>
</g>
<g>
</g>
<g>
</g>
<g>
</g>
</svg>
